<svg xmlns="http://www.w3.org/2000/svg" xmlns:xlink="http://www.w3.org/1999/xlink" width="500" zoomAndPan="magnify" viewBox="0 0 375 374.999991" height="500" preserveAspectRatio="xMidYMid meet" version="1.0"><defs><clipPath id="669faf29ef"><path d="M 187.5 0 C 83.945312 0 0 83.945312 0 187.5 C 0 291.054688 83.945312 375 187.5 375 C 291.054688 375 375 291.054688 375 187.5 C 375 83.945312 291.054688 0 187.5 0 Z M 187.5 0 " clip-rule="nonzero"/></clipPath><clipPath id="66b2396b9d"><path d="M 63.828125 63.828125 L 311.328125 63.828125 L 311.328125 311.328125 L 63.828125 311.328125 Z M 63.828125 63.828125 " clip-rule="nonzero"/></clipPath></defs><g clip-path="url(#669faf29ef)"><rect x="-37.5" width="450" fill="#000000" y="-37.499999" height="449.999989" fill-opacity="1"/></g><path fill="#ffffff" d="M 156.578125 202.953125 L 156.578125 197.800781 C 156.578125 186.417969 147.351562 177.1875 135.964844 177.1875 L 125.660156 177.1875 C 114.277344 177.1875 105.050781 186.417969 105.050781 197.800781 L 105.050781 233.871094 C 105.050781 245.253906 114.277344 254.484375 125.660156 254.484375 L 135.964844 254.484375 C 147.351562 254.484375 156.578125 245.253906 156.578125 233.871094 L 156.578125 228.71875 L 141.128906 228.71875 L 141.128906 233.871094 C 141.128906 236.71875 138.824219 239.023438 135.976562 239.023438 L 125.671875 239.023438 C 122.832031 239.023438 120.515625 236.71875 120.515625 233.871094 L 120.515625 197.800781 C 120.515625 194.953125 122.824219 192.648438 125.671875 192.648438 L 135.976562 192.648438 C 138.8125 192.648438 141.128906 194.953125 141.128906 197.800781 L 141.128906 202.953125 Z M 156.578125 202.953125 " fill-opacity="1" fill-rule="nonzero"/><path fill="#ffffff" d="M 197.800781 226.445312 L 183.027344 177.191406 L 166.882812 177.191406 L 190.070312 254.484375 L 205.53125 254.484375 L 228.71875 177.191406 L 212.574219 177.191406 Z M 197.800781 226.445312 " fill-opacity="1" fill-rule="nonzero"/><g clip-path="url(#66b2396b9d)"><path fill="#ffffff" d="M 108.183594 63.828125 L 95.46875 135.964844 L 63.828125 135.964844 L 63.828125 311.164062 L 84.441406 311.164062 L 84.441406 156.578125 L 249.328125 156.578125 L 249.328125 311.164062 L 273.867188 311.164062 L 311.164062 99.621094 Z M 269.941406 214.75 L 269.941406 135.964844 L 116.390625 135.964844 L 124.902344 87.703125 L 287.289062 116.335938 Z M 269.941406 214.75 " fill-opacity="1" fill-rule="nonzero"/></g><path fill="#ffffff" d="M 151.425781 275.09375 L 228.71875 275.09375 L 228.71875 290.550781 L 151.425781 290.550781 Z M 151.425781 275.09375 " fill-opacity="1" fill-rule="nonzero"/><path fill="#ffffff" d="M 105.050781 275.09375 L 135.964844 275.09375 L 135.964844 290.550781 L 105.050781 290.550781 Z M 105.050781 275.09375 " fill-opacity="1" fill-rule="nonzero"/></svg>