<svg xmlns="http://www.w3.org/2000/svg" xmlns:xlink="http://www.w3.org/1999/xlink" width="500" zoomAndPan="magnify" viewBox="0 0 375 374.999991" height="500" preserveAspectRatio="xMidYMid meet" version="1.0"><defs><clipPath id="08fae6691e"><path d="M 3 38 L 373 38 L 373 338.695312 L 3 338.695312 Z M 3 38 " clip-rule="nonzero"/></clipPath></defs><g clip-path="url(#08fae6691e)"><path fill="#262103" d="M 142.996094 191.546875 C 136.253906 185.757812 123.0625 185.433594 125.839844 197.429688 C 126.660156 200.15625 129.042969 202.242188 131.808594 202.839844 C 133.304688 203.195312 134.882812 203.066406 136.332031 203.621094 C 141.019531 207.757812 142.765625 215.136719 148.996094 217.449219 C 154.941406 218.8125 155.199219 211.726562 153.78125 207.75 C 151.808594 201.542969 148.097656 195.648438 142.996094 191.546875 Z M 150.207031 213.472656 C 145.621094 211.109375 144.0625 205.472656 140.519531 201.949219 C 139.117188 200.667969 137.355469 198.070312 135.207031 199.105469 C 132 199.105469 129.195312 197.699219 129.589844 194.0625 C 129.925781 190.855469 134.160156 191.652344 136.289062 192.449219 C 143.046875 194.816406 151.101562 206.308594 150.207031 213.472656 Z M 143.808594 172.625 C 135.882812 165.207031 118.300781 152.046875 111.519531 167.375 C 108.402344 175.375 109.34375 185.222656 112.371094 193.125 C 114.242188 197.609375 117.835938 200.972656 121.015625 204.535156 C 122.746094 206.484375 124.308594 208.625 126.203125 210.378906 C 131.808594 216.898438 137.316406 223.515625 143.414062 229.585938 C 147.5625 233.820312 152.675781 237.535156 158.699219 238.324219 C 162.1875 238.863281 166.0625 238.222656 168.605469 235.59375 C 176.644531 226.9375 167.070312 207.796875 162.523438 198.863281 C 157.433594 189.386719 151.773438 179.984375 143.808594 172.625 Z M 161.332031 234.34375 C 152.90625 234.375 147.042969 227.492188 141.722656 221.804688 C 137.859375 217.667969 134.203125 213.355469 130.542969 209.039062 C 129.484375 208.070312 128.847656 206.589844 127.582031 205.902344 C 126.554688 204.660156 125.542969 203.402344 124.480469 202.1875 C 121.550781 198.800781 118.105469 195.839844 116.242188 191.632812 C 113.597656 184.6875 112.488281 174.957031 115.785156 168.070312 C 120.964844 158.203125 135.644531 170.972656 140.964844 175.640625 C 146.53125 180.746094 150.851562 186.984375 154.722656 193.429688 C 158.960938 200.269531 176.964844 233.140625 161.332031 234.34375 Z M 227.574219 244.679688 C 221.09375 239.550781 214 235.1875 207.882812 229.609375 C 195.285156 218.226562 192.003906 205.359375 186.917969 189.832031 C 184.519531 182.347656 181.679688 174.960938 177.699219 168.164062 C 173.457031 161.230469 168.535156 154.691406 163.128906 148.625 C 153.441406 138.238281 142.570312 128.050781 128.953125 123.230469 C 119.1875 120.195312 108.085938 121.800781 99.378906 127.097656 C 92.6875 131.652344 88.027344 138.703125 84.585938 145.914062 C 78.007812 161.84375 77.320312 181.21875 83.964844 197.230469 C 87.238281 203.945312 91.128906 210.589844 96.445312 215.878906 C 101.339844 222.363281 107.027344 228.210938 112.734375 233.976562 C 135.132812 256.351562 171.394531 278 202.558594 284.082031 C 215.386719 286.378906 232.226562 287.351562 243.722656 280.355469 C 252.292969 273.949219 247.125 264.003906 241.371094 257.675781 C 237.195312 252.933594 232.539062 248.585938 227.570312 244.679688 Z M 221.007812 281.597656 C 194.023438 281.804688 168.625 269.355469 146.21875 255.234375 C 129.394531 244.800781 114.621094 231.34375 101.929688 216.179688 C 100.019531 213.507812 97.722656 211.253906 95.660156 208.71875 C 91.597656 203.1875 87.910156 197.050781 85.847656 190.457031 C 82 175.582031 82.660156 158.71875 89.789062 144.8125 C 92.5625 139.683594 96.5625 133.894531 101.757812 130.5 C 108.789062 126.300781 117.511719 124.890625 125.546875 126.570312 C 135.726562 129.390625 144.347656 136.140625 151.976562 143.222656 C 160.207031 150.851562 167.40625 159.675781 173.457031 169.140625 C 178.875 177.933594 182.035156 188.1875 185.257812 198.113281 C 190.042969 213.253906 194.75 223.941406 207.167969 234.523438 C 215.0625 241.082031 223.957031 246.375 231.433594 253.453125 C 251.316406 271.671875 247.691406 280.371094 221.007812 281.597656 Z M 298.730469 277.199219 C 297.957031 274.648438 296.863281 272.164062 295.453125 269.894531 C 294.886719 268.980469 294.285156 268.085938 293.613281 267.238281 C 292.761719 266.164062 291.835938 265.140625 290.90625 264.128906 C 287.753906 260.6875 284.226562 257.585938 280.449219 254.84375 C 276.207031 251.765625 271.6875 249.128906 267.1875 246.453125 C 262.867188 243.890625 258.601562 241.25 254.5 238.335938 C 249.597656 234.8125 244.695312 230.828125 240.066406 226.542969 L 240.007812 226.488281 C 239.996094 226.480469 239.988281 226.472656 239.976562 226.460938 C 236.636719 223.328125 233.386719 220.0625 230.285156 216.652344 C 227.152344 213.210938 224.066406 209.726562 221.125 206.121094 C 219.589844 204.222656 218.066406 202.3125 216.570312 200.386719 C 210.269531 192.296875 204.578125 183.757812 199.210938 175.023438 C 198.144531 173.285156 197.0625 171.496094 195.992188 169.691406 C 193.335938 165.199219 190.863281 160.601562 188.484375 155.953125 C 186.148438 151.378906 183.832031 146.800781 181.324219 142.324219 C 178.800781 137.816406 176.097656 133.402344 173.359375 129.027344 C 170.691406 124.761719 167.945312 120.542969 165.148438 116.359375 C 162.324219 112.136719 159.492188 107.917969 156.445312 103.851562 C 153.289062 99.636719 149.9375 95.566406 146.535156 91.542969 C 144.804688 89.5 143.082031 87.449219 141.308594 85.445312 C 139.601562 83.507812 137.800781 81.671875 135.933594 79.890625 C 134.101562 78.136719 132.15625 76.472656 130.160156 74.902344 C 127.964844 73.171875 125.683594 71.554688 123.3125 70.074219 C 121.050781 68.667969 118.695312 67.40625 116.289062 66.273438 C 113.953125 65.179688 111.570312 64.132812 109.101562 63.386719 C 106.8125 62.691406 104.488281 62.125 102.128906 61.703125 C 99.566406 61.242188 96.953125 61.089844 94.355469 61.074219 C 91.78125 61.058594 89.191406 61.167969 86.644531 61.539062 C 83.878906 61.9375 81.1875 62.613281 78.527344 63.445312 C 76.085938 64.207031 73.625 65.066406 71.359375 66.257812 C 68.878906 67.5625 66.625 69.214844 64.46875 71.003906 C 60.335938 74.429688 56.8125 78.484375 53.585938 82.761719 C 51.957031 84.914062 50.40625 87.125 48.980469 89.417969 C 47.492188 91.816406 46.191406 94.347656 45.015625 96.910156 C 43.875 99.382812 42.792969 101.894531 41.9375 104.484375 C 41.101562 107.035156 40.351562 109.613281 39.726562 112.226562 C 39.136719 114.671875 38.585938 117.128906 38.21875 119.621094 C 37.839844 122.1875 37.5625 124.765625 37.375 127.355469 C 37.183594 130.054688 37.097656 132.761719 37.167969 135.464844 C 37.230469 138.050781 37.421875 140.632812 37.671875 143.207031 C 38.195312 148.65625 39.320312 154.035156 40.792969 159.300781 C 42.164062 164.203125 43.886719 169.019531 45.769531 173.746094 C 47.664062 178.5 49.582031 183.25 51.695312 187.910156 C 53.632812 192.183594 55.710938 196.390625 58.078125 200.441406 C 60.527344 204.636719 63.136719 208.757812 65.933594 212.726562 C 67.421875 214.839844 68.984375 216.914062 70.621094 218.933594 C 71.164062 220.3125 72.777344 221.796875 74.132812 223.027344 C 75.113281 224.101562 76.117188 225.144531 77.15625 226.15625 C 77.742188 226.621094 78.328125 227.082031 78.929688 227.53125 C 79.09375 227.640625 79.261719 227.75 79.429688 227.859375 L 79.433594 227.863281 C 79.660156 228.007812 79.886719 228.15625 80.113281 228.3125 C 80.535156 228.601562 80.917969 228.941406 81.332031 229.25 C 81.539062 229.40625 81.746094 229.5625 81.949219 229.726562 C 83.089844 230.527344 84.246094 231.289062 85.335938 232.15625 C 85.527344 232.300781 85.707031 232.453125 85.894531 232.601562 C 86.371094 232.957031 86.851562 233.324219 87.347656 233.660156 C 87.292969 233.621094 87.230469 233.582031 87.171875 233.542969 C 87.449219 233.730469 87.710938 233.929688 87.984375 234.125 C 88.234375 234.304688 88.480469 234.484375 88.722656 234.667969 C 89.375 235.140625 90.058594 235.566406 90.703125 236.0625 C 91.066406 236.34375 91.433594 236.621094 91.78125 236.917969 C 91.894531 237.019531 92.011719 237.117188 92.128906 237.214844 C 92.164062 237.226562 92.195312 237.230469 92.230469 237.242188 C 92.378906 237.367188 92.53125 237.488281 92.671875 237.613281 C 93.445312 238.285156 94.214844 238.957031 94.996094 239.621094 C 97.222656 241.515625 99.496094 243.355469 101.765625 245.195312 C 105.542969 248.265625 109.441406 251.191406 113.371094 254.0625 C 115.542969 255.652344 117.734375 257.21875 119.960938 258.734375 C 122.03125 260.148438 124.15625 261.476562 126.300781 262.777344 C 130.664062 265.433594 135.113281 267.933594 139.621094 270.335938 C 139.664062 270.359375 139.703125 270.378906 139.75 270.398438 C 139.785156 270.421875 139.820312 270.445312 139.859375 270.464844 C 139.867188 270.46875 139.875 270.472656 139.882812 270.476562 C 139.960938 270.523438 140.042969 270.566406 140.125 270.605469 C 140.160156 270.625 140.195312 270.644531 140.230469 270.664062 C 140.246094 270.671875 140.265625 270.683594 140.28125 270.691406 C 140.332031 270.71875 140.375 270.746094 140.425781 270.765625 C 142.675781 271.964844 144.921875 273.164062 147.1875 274.328125 C 149.410156 275.476562 151.667969 276.554688 153.941406 277.601562 C 156.335938 278.707031 158.738281 279.789062 161.175781 280.804688 C 163.441406 281.753906 165.730469 282.65625 168.023438 283.550781 C 177.363281 287.195312 186.890625 290.332031 196.277344 293.851562 C 196.285156 293.851562 196.339844 293.871094 196.394531 293.890625 L 196.421875 293.902344 C 199.378906 295.019531 202.332031 296.171875 205.234375 297.425781 C 209.742188 299.375 214.136719 301.542969 218.550781 303.6875 C 223.277344 305.980469 228.035156 308.203125 232.941406 310.101562 C 235.402344 311.046875 237.886719 311.910156 240.425781 312.625 C 242.882812 313.320312 245.363281 313.980469 247.898438 314.324219 C 250.351562 314.65625 252.808594 314.851562 255.277344 314.96875 C 256.769531 315.039062 258.261719 315.082031 259.757812 315.082031 C 260.890625 315.082031 262.019531 315.058594 263.152344 315 C 268.109375 314.734375 273.046875 313.910156 277.785156 312.425781 C 282.734375 310.875 287.417969 308.417969 291.21875 304.855469 C 293.027344 303.164062 294.652344 301.285156 296.050781 299.238281 C 297.457031 297.175781 298.472656 294.867188 299.164062 292.46875 C 299.886719 289.949219 300.101562 287.332031 300.015625 284.71875 C 299.929688 282.160156 299.472656 279.652344 298.730469 277.199219 Z M 295.761719 288.3125 C 295.675781 289.035156 295.554688 289.746094 295.398438 290.457031 C 295.183594 291.316406 294.914062 292.160156 294.609375 292.996094 C 294.300781 293.800781 293.960938 294.59375 293.570312 295.363281 C 293.152344 296.113281 292.679688 296.824219 292.183594 297.527344 C 291.472656 298.503906 290.703125 299.433594 289.886719 300.320312 C 288.929688 301.332031 287.914062 302.28125 286.839844 303.164062 C 286.097656 303.753906 285.09375 304.464844 284.054688 305.117188 C 282.878906 305.824219 281.664062 306.457031 280.410156 307.015625 C 278.789062 307.714844 277.125 308.304688 275.425781 308.804688 C 273.089844 309.46875 270.71875 309.949219 268.320312 310.320312 C 265.894531 310.667969 263.449219 310.863281 261 310.929688 C 257.519531 310.976562 254.019531 310.828125 250.558594 310.472656 C 248.707031 310.257812 246.882812 309.992188 245.066406 309.566406 C 242.160156 308.867188 239.03125 307.949219 235.984375 306.820312 L 235.964844 306.816406 C 235.941406 306.808594 235.910156 306.792969 235.882812 306.785156 C 233.546875 305.894531 231.164062 304.933594 228.804688 303.902344 C 224.101562 301.839844 219.507812 299.523438 214.886719 297.277344 C 210.398438 295.097656 205.824219 293.101562 201.175781 291.285156 C 191.820312 287.625 182.265625 284.507812 172.863281 280.976562 C 170.195312 279.964844 167.285156 278.820312 164.390625 277.644531 C 161.464844 276.453125 158.585938 275.167969 155.714844 273.847656 C 153.453125 272.804688 151.203125 271.730469 148.988281 270.589844 C 146.730469 269.429688 144.492188 268.234375 142.253906 267.042969 L 142.25 267.039062 C 142.175781 266.992188 142.097656 266.953125 142.019531 266.914062 C 141.972656 266.894531 141.925781 266.867188 141.878906 266.84375 L 141.875 266.839844 C 141.796875 266.796875 141.71875 266.753906 141.640625 266.71875 C 137.632812 264.574219 133.660156 262.371094 129.769531 260.023438 C 127.953125 258.929688 126.132812 257.835938 124.351562 256.671875 C 122.4375 255.417969 120.5625 254.117188 118.699219 252.789062 C 117.253906 251.761719 115.679688 250.625 114.125 249.46875 C 110.261719 246.585938 106.4375 243.660156 102.707031 240.605469 C 101.308594 239.464844 99.910156 238.328125 98.527344 237.167969 C 98.308594 237 98.085938 236.835938 97.871094 236.65625 C 97.445312 236.304688 97.039062 235.941406 96.597656 235.613281 C 96.101562 235.238281 95.65625 234.804688 95.175781 234.40625 C 95.175781 234.40625 95.171875 234.402344 95.164062 234.402344 L 95.167969 234.402344 C 95.167969 234.398438 95.164062 234.394531 95.160156 234.394531 C 94.914062 234.242188 94.664062 234.089844 94.417969 233.933594 C 94.472656 233.964844 94.527344 233.996094 94.582031 234.03125 C 94.460938 233.957031 94.347656 233.875 94.234375 233.796875 C 94.050781 233.679688 93.875 233.554688 93.703125 233.425781 C 93.609375 233.355469 93.523438 233.285156 93.433594 233.214844 C 93.214844 233.039062 93 232.859375 92.796875 232.664062 C 92.785156 232.65625 92.769531 232.648438 92.761719 232.640625 L 92.765625 232.644531 L 92.757812 232.640625 C 87.476562 228.796875 82.089844 225.085938 77.425781 220.457031 C 76.195312 219.117188 75.003906 217.734375 73.851562 216.324219 L 73.769531 216.222656 C 73.761719 216.214844 73.757812 216.207031 73.753906 216.203125 C 69.910156 211.449219 66.519531 206.339844 63.316406 201.125 L 63.265625 201.046875 C 63.265625 201.039062 63.257812 201.03125 63.253906 201.023438 C 60.207031 196.011719 57.523438 190.796875 55.121094 185.421875 C 53.257812 181.1875 51.472656 176.84375 49.738281 172.480469 C 48.050781 168.261719 46.507812 163.976562 45.199219 159.628906 C 44.023438 155.550781 43.03125 151.398438 42.339844 147.199219 C 41.742188 143.171875 41.410156 139.09375 41.304688 135.03125 C 41.257812 131.539062 41.445312 128.0625 41.773438 124.589844 C 41.957031 122.84375 42.160156 121.101562 42.460938 119.375 C 42.765625 117.628906 43.125 115.902344 43.519531 114.175781 C 44.324219 110.808594 45.304688 107.296875 46.558594 103.871094 C 47.738281 100.832031 49.097656 97.878906 50.59375 94.988281 C 51.269531 93.722656 51.972656 92.472656 52.726562 91.257812 C 53.476562 90.0625 54.265625 88.898438 55.074219 87.746094 C 57.136719 84.867188 59.464844 81.863281 62.03125 79.042969 C 63.847656 77.125 65.757812 75.324219 67.789062 73.636719 C 68.988281 72.691406 70.207031 71.800781 71.484375 70.964844 C 72.53125 70.335938 73.59375 69.765625 74.703125 69.253906 C 76.824219 68.367188 79 67.625 81.203125 66.972656 C 83.03125 66.460938 84.867188 66.03125 86.734375 65.71875 C 88.636719 65.449219 90.539062 65.304688 92.460938 65.242188 C 94.753906 65.207031 97.039062 65.265625 99.324219 65.496094 C 101.015625 65.707031 102.8125 66.046875 104.605469 66.457031 C 106.359375 66.894531 108.082031 67.394531 109.78125 68 C 112.4375 69.027344 115.011719 70.230469 117.539062 71.542969 C 120.0625 72.910156 122.488281 74.433594 124.835938 76.082031 C 127.675781 78.148438 130.378906 80.394531 132.953125 82.78125 C 134.265625 84.039062 135.566406 85.316406 136.800781 86.65625 C 138.136719 88.105469 139.421875 89.601562 140.707031 91.101562 C 143.148438 93.96875 145.585938 96.84375 147.96875 99.757812 C 150.347656 102.679688 152.671875 105.675781 154.890625 108.746094 C 157.898438 112.914062 160.742188 117.210938 163.570312 121.5 C 166.304688 125.640625 168.988281 129.816406 171.585938 134.046875 C 173.378906 136.980469 175.21875 140 176.972656 143.066406 C 179.515625 147.53125 181.855469 152.097656 184.1875 156.671875 C 186.566406 161.351562 189.011719 165.992188 191.660156 170.523438 C 194.367188 175.144531 197.199219 179.695312 200.085938 184.207031 C 202.789062 188.4375 205.617188 192.589844 208.574219 196.648438 C 211.632812 200.84375 214.804688 204.949219 218.089844 208.96875 C 221.386719 213 224.839844 216.894531 228.375 220.71875 C 235.398438 228.316406 243.160156 235.300781 251.566406 241.335938 C 255.707031 244.308594 260.003906 247.023438 264.386719 249.628906 C 268.789062 252.246094 273.210938 254.8125 277.398438 257.761719 C 279.84375 259.515625 282.171875 261.40625 284.382812 263.449219 C 284.378906 263.449219 284.410156 263.476562 284.441406 263.507812 C 284.476562 263.539062 284.515625 263.574219 284.550781 263.605469 C 286.507812 265.464844 288.417969 267.46875 290.1875 269.597656 C 290.84375 270.429688 291.433594 271.296875 291.996094 272.191406 C 292.570312 273.144531 293.070312 274.136719 293.535156 275.148438 C 294.007812 276.234375 294.425781 277.335938 294.773438 278.46875 C 295.113281 279.648438 295.402344 280.835938 295.605469 282.046875 C 295.75 283.039062 295.835938 284.035156 295.871094 285.035156 C 295.890625 286.132812 295.867188 287.226562 295.761719 288.316406 Z M 367.445312 258.886719 C 358.011719 247.3125 346.34375 237.316406 333.160156 230.25 C 324.378906 225.378906 314.691406 222.484375 304.894531 220.503906 C 287.316406 216.757812 268.972656 216.296875 252.636719 207.863281 C 232.632812 198.96875 224.324219 177.296875 215.984375 158.578125 C 207.882812 139.859375 199.964844 120.996094 190.742188 102.800781 C 179.488281 81.03125 161.546875 63.179688 140.070312 51.464844 C 122.179688 41.847656 101.609375 36.429688 81.296875 39.582031 C 72.597656 40.433594 64.082031 42.527344 55.925781 45.65625 C 48.265625 48.167969 41.328125 52.453125 35.277344 57.75 C 25.128906 66.019531 17.367188 76.785156 11.226562 88.273438 C 6.3125 96.953125 4.394531 106.988281 3.660156 116.84375 C 2.621094 134.585938 5.570312 154.085938 12.621094 170.453125 C 17.292969 180.296875 23.242188 189.488281 29.324219 198.519531 C 37.257812 210.074219 46.183594 220.949219 55.847656 231.097656 C 65.808594 241.078125 77.132812 249.660156 89.199219 256.945312 C 103.429688 265.710938 118.726562 272.542969 133.820312 279.652344 C 137.152344 281.171875 140.492188 282.667969 143.820312 284.199219 C 143.96875 284.257812 144.121094 284.316406 144.273438 284.367188 C 144.1875 284.339844 144.105469 284.308594 144.023438 284.285156 C 144.394531 284.410156 144.757812 284.539062 145.128906 284.675781 C 145.113281 284.671875 145.09375 284.664062 145.078125 284.65625 L 145.164062 284.6875 C 145.207031 284.703125 145.25 284.71875 145.292969 284.734375 L 145.320312 284.746094 L 145.324219 284.746094 L 145.332031 284.75 L 145.328125 284.75 C 145.804688 284.917969 146.285156 285.097656 146.757812 285.28125 L 146.8125 285.300781 C 147.375 285.5 147.949219 285.683594 148.492188 285.925781 C 148.984375 286.148438 149.449219 286.4375 149.9375 286.671875 C 150.234375 286.796875 150.542969 286.882812 150.839844 287.003906 C 151.179688 287.140625 151.511719 287.265625 151.839844 287.414062 C 151.800781 287.394531 151.761719 287.378906 151.722656 287.359375 C 152.363281 287.644531 153.042969 287.828125 153.679688 288.109375 C 153.621094 288.085938 153.5625 288.058594 153.503906 288.03125 C 153.992188 288.25 154.496094 288.433594 154.984375 288.65625 L 154.980469 288.652344 C 154.992188 288.65625 155 288.664062 155.007812 288.667969 C 155 288.664062 154.992188 288.660156 154.984375 288.65625 C 155.40625 288.847656 155.867188 289.082031 156.226562 289.371094 C 161.148438 291.734375 166.421875 293.855469 171.601562 295.710938 C 176.75 297.621094 181.542969 300.304688 186.476562 302.675781 C 195.265625 306.480469 203.835938 310.695312 212.5 314.824219 C 230.691406 323.71875 248.902344 333.519531 269.042969 337.121094 C 274.175781 338.054688 280.011719 338.546875 286.046875 338.546875 C 298.371094 338.546875 311.53125 336.503906 321.234375 332.054688 C 326.757812 329.59375 331.316406 325.523438 335.777344 321.535156 C 340.894531 316.796875 345.878906 311.804688 349.507812 305.808594 C 352.714844 300.28125 355.375 294.816406 359.707031 289.941406 C 362.445312 286.707031 366.25 283.628906 369.089844 280.324219 C 375.03125 273.355469 372.242188 265.460938 367.445312 258.886719 Z M 361.476562 282.136719 C 357.675781 285.761719 354.175781 289.71875 351.40625 294.195312 C 348.007812 299.742188 345.289062 305.746094 340.839844 310.585938 C 324.769531 328.128906 315.421875 332.589844 291.734375 334.191406 C 265.917969 336.386719 241.953125 324.976562 219.476562 313.625 C 208.511719 308.238281 197.472656 303.023438 186.335938 298.011719 C 180.648438 295.011719 174.71875 292.265625 168.613281 290.179688 C 166.640625 289.453125 164.699219 288.65625 162.78125 287.808594 C 162.0625 287.597656 161.34375 287.4375 160.644531 287.148438 C 160.046875 286.894531 159.476562 286.566406 158.871094 286.316406 C 158.105469 285.996094 157.351562 285.652344 156.578125 285.355469 C 156.402344 285.289062 156.230469 285.226562 156.058594 285.152344 C 156.121094 285.179688 156.1875 285.207031 156.25 285.230469 C 155.324219 284.871094 154.378906 284.5625 153.46875 284.167969 C 152.667969 283.8125 151.863281 283.515625 151.113281 283.058594 C 151.109375 283.054688 151.101562 283.050781 151.097656 283.050781 C 151.128906 283.070312 151.164062 283.09375 151.199219 283.117188 C 151.152344 283.085938 151.109375 283.0625 151.0625 283.035156 C 151.015625 283.015625 150.972656 282.992188 150.929688 282.96875 C 150.917969 282.964844 150.914062 282.960938 150.902344 282.957031 C 150.878906 282.945312 150.851562 282.933594 150.828125 282.925781 C 150.839844 282.925781 150.855469 282.933594 150.871094 282.941406 C 150.820312 282.917969 150.769531 282.890625 150.71875 282.867188 C 150.6875 282.855469 150.664062 282.847656 150.628906 282.835938 C 150.652344 282.84375 150.675781 282.847656 150.695312 282.855469 C 150.6875 282.847656 150.671875 282.847656 150.664062 282.839844 C 150.367188 282.730469 150.09375 282.605469 149.8125 282.445312 C 149.769531 282.421875 149.730469 282.398438 149.6875 282.371094 C 121.019531 268.933594 91.035156 256.84375 66.941406 235.75 C 48.1875 219.597656 21.875 184.765625 13.558594 161.523438 C 7.058594 139.800781 4.1875 114.753906 13.269531 93.300781 C 21.734375 76.550781 33.746094 61.066406 50.714844 52.261719 C 60.527344 47.851562 70.777344 44.808594 81.542969 43.734375 C 94.347656 41.882812 107.441406 42.996094 119.683594 47.253906 C 141.445312 54.410156 161.015625 68.3125 175.214844 86.304688 C 184.222656 97.925781 190.714844 111.167969 196.492188 124.628906 C 202.078125 136.863281 207.53125 149.152344 212.746094 161.554688 C 220.09375 177.746094 227.011719 195.566406 241.910156 206.359375 C 248.484375 211.003906 255.96875 214.246094 263.597656 216.734375 C 276.09375 220.640625 289.265625 221.511719 302.042969 224.144531 C 314.894531 226.476562 327.945312 230.976562 338.914062 238.480469 C 347.253906 244.054688 354.898438 250.867188 361.699219 258.421875 C 364.773438 261.917969 367.648438 266.0625 368.363281 270.757812 C 368.6875 275.660156 364.738281 279.074219 361.476562 282.136719 Z M 150.96875 282.96875 C 151.015625 282.996094 151.058594 283.023438 151.105469 283.050781 C 151.101562 283.050781 151.09375 283.046875 151.085938 283.042969 C 151.050781 283.019531 151.011719 282.992188 150.96875 282.96875 Z M 151.046875 283.023438 C 151.050781 283.027344 151.054688 283.03125 151.0625 283.035156 C 151.019531 283.015625 150.972656 282.992188 150.929688 282.96875 C 150.96875 282.988281 151.007812 283.007812 151.046875 283.023438 Z M 150.753906 282.875 L 150.773438 282.882812 L 150.703125 282.859375 C 150.691406 282.851562 150.679688 282.847656 150.667969 282.84375 C 150.695312 282.851562 150.726562 282.863281 150.753906 282.875 Z M 166.214844 190.71875 C 161.457031 183.5 156.292969 176.488281 151.1875 169.503906 C 146.945312 163.691406 142.703125 157.753906 137.101562 153.148438 C 127.769531 145.515625 113.25 142.902344 104.378906 152.625 C 101.769531 155.152344 100.539062 158.648438 99.28125 161.976562 C 96.816406 168.511719 96.007812 175.792969 98.046875 182.550781 C 99.3125 187.113281 101.613281 191.285156 103.164062 195.742188 C 104.488281 199.683594 105.175781 204.054688 106.539062 208.035156 C 107.476562 210.304688 108.476562 213.910156 111.386719 214.078125 C 112.375 214 113.496094 213.613281 114.382812 214.289062 C 116.050781 215.558594 117.164062 217.207031 118.449219 218.925781 C 118.582031 219.105469 118.777344 219.207031 118.984375 219.234375 C 129.574219 230.074219 139.875 241.558594 152.617188 249.925781 C 156.695312 252.570312 161.039062 254.792969 165.457031 256.808594 C 170.949219 259.277344 176.527344 261.886719 182.574219 262.574219 C 203.078125 264.601562 195.117188 245.570312 190.0625 234.308594 C 183.238281 219.183594 175.433594 204.523438 166.214844 190.71875 Z M 186.613281 261.066406 C 178.453125 261.398438 170.898438 257.429688 163.632812 254.128906 C 152.546875 249.066406 143.113281 241.21875 134.511719 232.683594 C 129.640625 227.75 124.632812 222.933594 119.949219 217.816406 C 117.738281 215.527344 115.703125 211.488281 111.929688 212.332031 C 107.859375 213.316406 105.933594 196.632812 104.082031 193.40625 C 101.761719 187.734375 98.878906 182.191406 98.582031 175.9375 C 98.25 169.035156 100.738281 160.117188 104.882812 154.515625 C 113.464844 144.394531 127.621094 147.1875 136.746094 155.023438 C 144.246094 161.636719 149.585938 170.410156 155.582031 178.34375 C 159.726562 184.0625 163.679688 189.726562 167.472656 195.722656 C 174.691406 206.90625 180.996094 218.628906 186.554688 230.722656 C 189.46875 236.878906 192.332031 242.984375 193.800781 249.699219 C 195.21875 256.25 193.851562 260.382812 186.613281 261.066406 Z M 310.042969 256.914062 C 300.640625 249.917969 289.738281 245.683594 279.316406 240.488281 C 271.113281 236.164062 263.433594 230.929688 255.957031 225.445312 C 245.667969 217.90625 236.058594 209.367188 227.898438 199.535156 C 216.257812 184.8125 207.15625 168.21875 197.488281 152.167969 C 187.753906 135.140625 177.558594 118.320312 166.203125 102.320312 C 157.390625 91.589844 148.335938 80.917969 137.949219 71.664062 C 127.683594 62.050781 114.414062 56.585938 100.828125 53.582031 C 92.707031 51.699219 84.359375 50.363281 76.007812 51.074219 C 65.351562 52.21875 54.503906 55.71875 46.292969 62.8125 C 41.855469 66.605469 38.769531 71.667969 35.773438 76.617188 C 32.800781 81.613281 30.316406 86.878906 28.40625 92.371094 C 22.175781 109.566406 19.539062 130.285156 22.824219 148.363281 C 26.222656 167.671875 36.460938 184.84375 47.761719 200.554688 C 54.378906 209.878906 61.59375 218.777344 69.457031 227.074219 C 81.113281 239.105469 94.085938 250.054688 108.578125 258.507812 C 115.351562 263.109375 122.472656 267.25 129.792969 270.917969 C 139.675781 276.167969 150.027344 280.398438 160.347656 284.6875 C 168.265625 288.257812 176.140625 291.933594 184.191406 295.210938 C 191.535156 298.324219 198.972656 301.234375 206.351562 304.269531 C 215.859375 308.308594 225.242188 312.671875 235.035156 316 C 249.390625 320.742188 264.429688 323.523438 279.566406 323.621094 C 288.425781 323.667969 297.386719 323.492188 305.992188 321.136719 C 311.492188 319.648438 317.039062 317.664062 321.390625 313.855469 C 323.359375 312.117188 325.027344 310.054688 326.453125 307.859375 C 328.8125 304.152344 331.035156 300.15625 331.671875 295.753906 C 332.414062 290.21875 332.007812 284.421875 330.128906 279.148438 C 326.097656 269.792969 318.011719 262.917969 310.042969 256.914062 Z M 330.304688 293.089844 C 330.042969 298.828125 327.179688 304.027344 323.894531 308.644531 C 315.117188 320.582031 296.121094 321.898438 282.347656 321.960938 C 259.125 322.394531 236.398438 316.027344 215.386719 306.382812 C 202.425781 300.566406 189.058594 295.707031 176.066406 289.953125 C 160.253906 282.523438 143.777344 276.59375 128.371094 268.296875 C 121.792969 264.980469 115.554688 261.199219 109.421875 257.078125 C 103.878906 253.792969 98.445312 250.339844 93.417969 246.28125 C 73.992188 231.589844 57.878906 212.9375 44.351562 192.757812 C 31.132812 173.65625 21.433594 150.988281 23.203125 127.328125 C 24.28125 105.96875 30.5625 84.363281 44.019531 67.433594 C 53.878906 56.386719 70.058594 51.859375 84.574219 52.65625 C 96.9375 53.753906 109.28125 56.789062 120.625 61.875 C 130.019531 66.402344 137.980469 73.453125 145.230469 80.875 C 152.347656 88.597656 159.480469 96.308594 165.882812 104.679688 C 187.097656 134.421875 202.71875 167.785156 224.085938 197.414062 C 237.621094 214.816406 255.527344 228.375 274.332031 239.644531 C 284.542969 245.511719 295.835938 249.292969 305.648438 255.894531 C 314.207031 261.753906 322.851562 268.699219 327.820312 278.042969 C 330.058594 282.683594 330.519531 287.988281 330.304688 293.089844 Z M 330.304688 293.089844 " fill-opacity="1" fill-rule="nonzero"/></g></svg>