<svg xmlns="http://www.w3.org/2000/svg" xmlns:xlink="http://www.w3.org/1999/xlink" width="500" zoomAndPan="magnify" viewBox="0 0 375 149.999998" height="200" preserveAspectRatio="xMidYMid meet" version="1.0"><defs><clipPath id="ec8a2e6212"><path d="M 196 30.703125 L 217 30.703125 L 217 60 L 196 60 Z M 196 30.703125 " clip-rule="nonzero"/></clipPath><clipPath id="c0198cd9ae"><path d="M 27 72 L 348 72 L 348 119.203125 L 27 119.203125 Z M 27 72 " clip-rule="nonzero"/></clipPath></defs><path fill="#262103" d="M 358.042969 67.898438 C 358.042969 64.019531 361.1875 60.875 365.066406 60.875 C 368.945312 60.875 372.089844 64.019531 372.089844 67.898438 C 372.089844 71.777344 368.945312 74.921875 365.066406 74.921875 C 361.1875 74.921875 358.042969 71.777344 358.042969 67.898438 Z M 355.132812 67.898438 C 355.132812 73.386719 362.582031 86.082031 365.066406 86.082031 C 367.609375 86.082031 375 73.386719 375 67.898438 C 375 62.414062 370.550781 57.964844 365.066406 57.964844 C 359.582031 57.964844 355.132812 62.414062 355.132812 67.898438 " fill-opacity="1" fill-rule="nonzero"/><path fill="#262103" d="M 368.554688 92.625 C 368.554688 90.699219 366.992188 89.136719 365.066406 89.136719 C 363.140625 89.136719 361.578125 90.699219 361.578125 92.625 C 361.578125 94.550781 363.140625 96.109375 365.066406 96.109375 C 366.992188 96.109375 368.554688 94.550781 368.554688 92.625 " fill-opacity="1" fill-rule="nonzero"/><g clip-path="url(#ec8a2e6212)"><path fill="#262103" d="M 199.617188 40.902344 C 199.617188 37.023438 202.761719 33.878906 206.640625 33.878906 C 210.519531 33.878906 213.664062 37.023438 213.664062 40.902344 C 213.664062 44.78125 210.519531 47.929688 206.640625 47.929688 C 202.761719 47.929688 199.617188 44.78125 199.617188 40.902344 Z M 196.707031 40.902344 C 196.707031 46.390625 204.15625 59.089844 206.640625 59.089844 C 209.1875 59.089844 216.574219 46.390625 216.574219 40.902344 C 216.574219 35.417969 212.125 30.972656 206.640625 30.972656 C 201.15625 30.972656 196.707031 35.417969 196.707031 40.902344 " fill-opacity="1" fill-rule="nonzero"/></g><path fill="#262103" d="M 210.128906 65.628906 C 210.128906 63.707031 208.566406 62.144531 206.640625 62.144531 C 204.714844 62.144531 203.15625 63.707031 203.15625 65.628906 C 203.15625 67.554688 204.714844 69.117188 206.640625 69.117188 C 208.566406 69.117188 210.128906 67.554688 210.128906 65.628906 " fill-opacity="1" fill-rule="nonzero"/><path fill="#262103" d="M 289.457031 84.929688 C 289.457031 81.050781 292.605469 77.90625 296.484375 77.90625 C 300.363281 77.90625 303.507812 81.050781 303.507812 84.929688 C 303.507812 88.808594 300.363281 91.953125 296.484375 91.953125 C 292.605469 91.953125 289.457031 88.808594 289.457031 84.929688 Z M 286.550781 84.929688 C 286.550781 90.414062 294 103.117188 296.484375 103.117188 C 299.03125 103.117188 306.414062 90.414062 306.414062 84.929688 C 306.414062 79.445312 301.96875 74.996094 296.484375 74.996094 C 290.996094 74.996094 286.550781 79.445312 286.550781 84.929688 " fill-opacity="1" fill-rule="nonzero"/><path fill="#262103" d="M 299.96875 109.65625 C 299.96875 107.730469 298.410156 106.171875 296.484375 106.171875 C 294.554688 106.171875 292.996094 107.730469 292.996094 109.65625 C 292.996094 111.582031 294.554688 113.144531 296.484375 113.144531 C 298.410156 113.144531 299.96875 111.582031 299.96875 109.65625 " fill-opacity="1" fill-rule="nonzero"/><path fill="#262103" d="M 108.785156 84.929688 C 108.785156 81.050781 111.929688 77.90625 115.808594 77.90625 C 119.6875 77.90625 122.832031 81.050781 122.832031 84.929688 C 122.832031 88.808594 119.6875 91.953125 115.808594 91.953125 C 111.929688 91.953125 108.785156 88.808594 108.785156 84.929688 Z M 105.875 84.929688 C 105.875 90.414062 113.324219 103.117188 115.808594 103.117188 C 118.351562 103.117188 125.738281 90.414062 125.738281 84.929688 C 125.738281 79.445312 121.292969 74.996094 115.808594 74.996094 C 110.324219 74.996094 105.875 79.445312 105.875 84.929688 " fill-opacity="1" fill-rule="nonzero"/><path fill="#262103" d="M 119.292969 109.65625 C 119.292969 107.730469 117.730469 106.171875 115.808594 106.171875 C 113.882812 106.171875 112.320312 107.730469 112.320312 109.65625 C 112.320312 111.582031 113.882812 113.144531 115.808594 113.144531 C 117.730469 113.144531 119.292969 111.582031 119.292969 109.65625 " fill-opacity="1" fill-rule="nonzero"/><path fill="#262103" d="M 2.910156 70.484375 C 2.910156 66.605469 6.054688 63.460938 9.933594 63.460938 C 13.8125 63.460938 16.957031 66.605469 16.957031 70.484375 C 16.957031 74.363281 13.8125 77.511719 9.933594 77.511719 C 6.054688 77.511719 2.910156 74.363281 2.910156 70.484375 Z M 0 70.484375 C 0 75.96875 7.449219 88.667969 9.933594 88.667969 C 12.476562 88.667969 19.867188 75.96875 19.867188 70.484375 C 19.867188 64.996094 15.417969 60.554688 9.933594 60.554688 C 4.449219 60.554688 0 64.996094 0 70.484375 " fill-opacity="1" fill-rule="nonzero"/><path fill="#262103" d="M 13.421875 95.210938 C 13.421875 93.285156 11.859375 91.726562 9.933594 91.726562 C 8.007812 91.726562 6.445312 93.285156 6.445312 95.210938 C 6.445312 97.136719 8.007812 98.699219 9.933594 98.699219 C 11.859375 98.699219 13.421875 97.136719 13.421875 95.210938 " fill-opacity="1" fill-rule="nonzero"/><path fill="#262103" d="M 16.71875 95.5625 C 16.726562 95.5625 16.730469 95.5625 16.742188 95.5625 C 16.757812 95.5625 18.652344 95.554688 21.605469 95.519531 C 22.097656 95.511719 22.496094 95.128906 22.492188 94.632812 C 22.484375 94.140625 22.085938 93.769531 21.59375 93.769531 C 21.59375 93.769531 21.585938 93.769531 21.582031 93.769531 C 18.625 93.769531 16.71875 93.835938 16.703125 93.835938 C 16.203125 93.847656 15.8125 94.222656 15.824219 94.71875 C 15.832031 95.207031 16.234375 95.5625 16.71875 95.5625 " fill-opacity="1" fill-rule="nonzero"/><g clip-path="url(#c0198cd9ae)"><path fill="#262103" d="M 198.847656 75.246094 C 198.710938 74.769531 198.988281 74.246094 199.464844 74.109375 C 202.546875 73.230469 205.417969 72.730469 208.003906 72.730469 L 208.101562 72.730469 C 208.566406 72.730469 209.046875 72.789062 209.53125 72.820312 C 210.027344 72.851562 210.402344 73.316406 210.367188 73.808594 C 210.335938 74.304688 209.910156 74.65625 209.417969 74.625 C 208.96875 74.59375 208.523438 74.527344 208.089844 74.527344 L 208.003906 74.527344 C 205.585938 74.527344 202.878906 75.003906 199.960938 75.835938 C 199.878906 75.859375 199.796875 75.921875 199.714844 75.921875 C 199.320312 75.921875 198.960938 75.640625 198.847656 75.246094 Z M 225.15625 79.5625 C 221.839844 77.945312 218.882812 76.761719 216.109375 75.941406 C 215.632812 75.800781 215.359375 75.300781 215.503906 74.828125 C 215.640625 74.351562 216.144531 74.078125 216.617188 74.21875 C 219.484375 75.070312 222.535156 76.289062 225.941406 77.945312 C 226.386719 78.167969 226.574219 78.703125 226.355469 79.148438 C 226.199219 79.46875 225.882812 79.652344 225.546875 79.652344 C 225.414062 79.652344 225.285156 79.621094 225.15625 79.5625 Z M 183.449219 82.265625 C 183.210938 81.832031 183.367188 81.285156 183.800781 81.046875 C 187.058594 79.234375 189.988281 77.78125 192.746094 76.597656 C 193.203125 76.398438 193.730469 76.609375 193.925781 77.066406 C 194.125 77.523438 193.914062 78.050781 193.457031 78.246094 C 190.75 79.410156 187.878906 80.839844 184.667969 82.617188 C 184.53125 82.691406 184.382812 82.726562 184.234375 82.726562 C 183.917969 82.726562 183.613281 82.5625 183.449219 82.265625 Z M 239.742188 87.964844 C 236.632812 85.972656 233.878906 84.296875 231.320312 82.835938 C 230.886719 82.589844 230.738281 82.042969 230.984375 81.613281 C 231.230469 81.179688 231.777344 81.03125 232.210938 81.273438 C 234.796875 82.75 237.578125 84.445312 240.710938 86.453125 C 241.128906 86.722656 241.25 87.277344 240.984375 87.695312 C 240.8125 87.964844 240.519531 88.109375 240.226562 88.109375 C 240.0625 88.109375 239.890625 88.0625 239.742188 87.964844 Z M 169.03125 91.171875 C 168.761719 90.757812 168.878906 90.203125 169.292969 89.929688 C 172.515625 87.824219 175.183594 86.136719 177.6875 84.613281 C 178.109375 84.355469 178.664062 84.488281 178.921875 84.910156 C 179.179688 85.335938 179.042969 85.886719 178.621094 86.144531 C 176.132812 87.660156 173.480469 89.339844 170.273438 91.433594 C 170.121094 91.53125 169.953125 91.578125 169.785156 91.578125 C 169.492188 91.578125 169.203125 91.433594 169.03125 91.171875 Z M 38.515625 95.5625 C 35.570312 95.5625 32.355469 95.5625 28.960938 95.5625 L 28.625 95.5625 C 28.132812 95.5625 27.730469 95.160156 27.730469 94.667969 C 27.730469 94.171875 28.132812 93.769531 28.625 93.769531 L 28.960938 93.769531 C 32.363281 93.769531 35.589844 93.761719 38.550781 93.816406 C 39.042969 93.824219 39.441406 94.199219 39.429688 94.695312 C 39.417969 95.183594 39.019531 95.5625 38.53125 95.5625 C 38.527344 95.5625 38.519531 95.5625 38.515625 95.5625 Z M 55.332031 96.503906 C 52.898438 96.199219 49.601562 95.957031 45.53125 95.792969 C 45.03125 95.773438 44.648438 95.355469 44.667969 94.859375 C 44.691406 94.375 45.085938 94 45.566406 94 C 45.578125 94 45.589844 94 45.605469 94 C 49.722656 94.167969 53.070312 94.410156 55.554688 94.722656 C 56.046875 94.785156 56.398438 95.234375 56.335938 95.726562 C 56.277344 96.179688 55.890625 96.511719 55.445312 96.511719 C 55.40625 96.511719 55.371094 96.507812 55.332031 96.503906 Z M 253.816406 97.378906 L 253.027344 96.84375 C 250.59375 95.183594 248.078125 93.472656 245.613281 91.824219 C 245.203125 91.546875 245.089844 90.988281 245.367188 90.578125 C 245.640625 90.167969 246.203125 90.054688 246.613281 90.332031 C 249.082031 91.984375 251.601562 93.699219 254.039062 95.359375 L 254.828125 95.894531 C 255.238281 96.175781 255.34375 96.730469 255.0625 97.140625 C 254.890625 97.398438 254.605469 97.535156 254.320312 97.535156 C 254.148438 97.535156 253.972656 97.484375 253.816406 97.378906 Z M 154.890625 100.535156 C 154.621094 100.117188 154.738281 99.5625 155.148438 99.289062 C 157.234375 97.921875 159.359375 96.507812 161.417969 95.136719 L 163.410156 93.8125 C 163.820312 93.539062 164.378906 93.648438 164.652344 94.0625 C 164.925781 94.476562 164.816406 95.03125 164.402344 95.308594 L 162.414062 96.628906 C 160.351562 98 158.222656 99.421875 156.136719 100.792969 C 155.984375 100.890625 155.816406 100.9375 155.644531 100.9375 C 155.351562 100.9375 155.066406 100.796875 154.890625 100.535156 Z M 71.175781 101.554688 C 67.5625 99.980469 64.566406 98.824219 62.027344 98.011719 C 61.550781 97.863281 61.292969 97.359375 61.445312 96.882812 C 61.59375 96.414062 62.097656 96.152344 62.570312 96.300781 C 65.171875 97.128906 68.21875 98.3125 71.894531 99.90625 C 72.347656 100.105469 72.554688 100.636719 72.359375 101.089844 C 72.210938 101.429688 71.882812 101.628906 71.535156 101.628906 C 71.417969 101.628906 71.292969 101.605469 71.175781 101.554688 Z M 337.21875 105.074219 C 337.007812 104.621094 337.199219 104.089844 337.644531 103.875 C 340.535156 102.511719 343.523438 101.054688 346.539062 99.542969 C 346.980469 99.320312 347.519531 99.5 347.742188 99.945312 C 347.964844 100.386719 347.785156 100.925781 347.339844 101.148438 C 344.316406 102.667969 341.3125 104.128906 338.414062 105.5 C 338.289062 105.558594 338.160156 105.585938 338.03125 105.585938 C 337.691406 105.585938 337.371094 105.394531 337.21875 105.074219 Z M 267.964844 106.769531 C 265.523438 105.226562 262.878906 103.5 259.652344 101.332031 C 259.238281 101.054688 259.128906 100.5 259.40625 100.085938 C 259.683594 99.675781 260.242188 99.566406 260.652344 99.839844 C 263.867188 102 266.496094 103.71875 268.925781 105.25 C 269.347656 105.515625 269.46875 106.070312 269.207031 106.492188 C 269.035156 106.761719 268.742188 106.910156 268.445312 106.910156 C 268.28125 106.910156 268.117188 106.863281 267.964844 106.769531 Z M 86.542969 108.65625 C 85.0625 107.96875 83.582031 107.269531 82.113281 106.578125 C 80.585938 105.859375 79.070312 105.144531 77.570312 104.449219 C 77.121094 104.242188 76.925781 103.707031 77.136719 103.257812 C 77.347656 102.808594 77.878906 102.613281 78.328125 102.824219 C 79.828125 103.519531 81.347656 104.234375 82.878906 104.953125 C 84.34375 105.644531 85.820312 106.339844 87.300781 107.027344 C 87.753906 107.238281 87.945312 107.769531 87.738281 108.21875 C 87.585938 108.546875 87.261719 108.742188 86.921875 108.742188 C 86.792969 108.742188 86.664062 108.714844 86.542969 108.65625 Z M 140.472656 109.4375 C 140.226562 109.007812 140.378906 108.460938 140.804688 108.214844 C 143.359375 106.761719 146.117188 105.09375 149.25 103.105469 C 149.667969 102.84375 150.222656 102.964844 150.488281 103.386719 C 150.753906 103.804688 150.628906 104.359375 150.210938 104.625 C 147.054688 106.625 144.269531 108.308594 141.695312 109.773438 C 141.554688 109.855469 141.402344 109.890625 141.253906 109.890625 C 140.941406 109.890625 140.636719 109.730469 140.472656 109.4375 Z M 321.6875 111.855469 C 321.503906 111.394531 321.726562 110.875 322.183594 110.6875 C 325.027344 109.539062 328.082031 108.238281 331.269531 106.8125 C 331.71875 106.609375 332.253906 106.8125 332.453125 107.265625 C 332.65625 107.71875 332.453125 108.25 332 108.449219 C 328.796875 109.886719 325.722656 111.199219 322.855469 112.351562 C 322.746094 112.398438 322.632812 112.417969 322.519531 112.417969 C 322.164062 112.417969 321.828125 112.207031 321.6875 111.855469 Z M 282.882812 115.050781 C 280.152344 113.816406 277.257812 112.304688 274.019531 110.4375 C 273.589844 110.1875 273.441406 109.640625 273.691406 109.210938 C 273.9375 108.777344 274.488281 108.632812 274.917969 108.882812 C 278.101562 110.722656 280.949219 112.203125 283.621094 113.417969 C 284.074219 113.621094 284.273438 114.152344 284.070312 114.605469 C 283.917969 114.9375 283.59375 115.132812 283.25 115.132812 C 283.128906 115.132812 283 115.105469 282.882812 115.050781 Z M 102.207031 115.324219 C 99.496094 114.34375 96.472656 113.121094 92.96875 111.578125 C 92.515625 111.378906 92.3125 110.847656 92.511719 110.394531 C 92.710938 109.941406 93.238281 109.734375 93.695312 109.933594 C 97.160156 111.460938 100.140625 112.667969 102.816406 113.632812 C 103.28125 113.800781 103.527344 114.316406 103.355469 114.78125 C 103.222656 115.148438 102.878906 115.375 102.511719 115.375 C 102.410156 115.375 102.308594 115.359375 102.207031 115.324219 Z M 125.039062 116.347656 C 124.890625 115.878906 125.148438 115.375 125.625 115.222656 C 128.382812 114.355469 131.332031 113.136719 134.644531 111.503906 C 135.089844 111.285156 135.628906 111.46875 135.847656 111.910156 C 136.070312 112.355469 135.882812 112.894531 135.4375 113.113281 C 132.042969 114.789062 129.007812 116.042969 126.164062 116.9375 C 126.074219 116.964844 125.980469 116.980469 125.894531 116.980469 C 125.511719 116.980469 125.160156 116.734375 125.039062 116.347656 Z M 305.609375 117.179688 C 305.488281 116.695312 305.78125 116.207031 306.261719 116.089844 C 309.003906 115.40625 312.15625 114.429688 315.640625 113.183594 C 316.105469 113.019531 316.621094 113.261719 316.789062 113.726562 C 316.953125 114.195312 316.710938 114.707031 316.246094 114.875 C 312.707031 116.140625 309.496094 117.136719 306.695312 117.832031 C 306.625 117.847656 306.550781 117.859375 306.480469 117.859375 C 306.078125 117.859375 305.710938 117.585938 305.609375 117.179688 Z M 109.015625 117.429688 C 108.535156 117.308594 108.242188 116.824219 108.363281 116.34375 C 108.484375 115.859375 108.96875 115.570312 109.449219 115.6875 C 112.738281 116.507812 115.613281 116.855469 117.988281 116.726562 C 118.304688 116.707031 118.628906 116.683594 118.949219 116.652344 C 119.441406 116.605469 119.878906 116.96875 119.925781 117.460938 C 119.976562 117.953125 119.613281 118.394531 119.117188 118.441406 C 118.773438 118.472656 118.425781 118.5 118.085938 118.519531 C 117.726562 118.539062 117.355469 118.550781 116.976562 118.550781 C 114.640625 118.550781 112.035156 118.183594 109.015625 117.429688 Z M 297.347656 119.085938 C 294.96875 118.976562 292.34375 118.480469 289.550781 117.621094 C 289.074219 117.472656 288.808594 116.972656 288.953125 116.5 C 289.101562 116.023438 289.601562 115.761719 290.078125 115.902344 C 292.730469 116.722656 295.203125 117.191406 297.429688 117.292969 C 298.054688 117.320312 298.746094 117.308594 299.488281 117.261719 C 299.984375 117.230469 300.414062 117.601562 300.449219 118.09375 C 300.484375 118.585938 300.109375 119.019531 299.613281 119.050781 C 299.101562 119.085938 298.605469 119.101562 298.140625 119.101562 C 297.867188 119.101562 297.601562 119.097656 297.347656 119.085938 " fill-opacity="1" fill-rule="nonzero"/></g><path fill="#262103" d="M 352.984375 98.152344 C 353.125 98.152344 353.265625 98.121094 353.394531 98.050781 C 356.078125 96.652344 357.699219 95.765625 357.71875 95.757812 C 358.152344 95.519531 358.3125 94.972656 358.074219 94.539062 C 357.835938 94.105469 357.292969 93.941406 356.855469 94.179688 C 356.839844 94.1875 355.230469 95.066406 352.566406 96.460938 C 352.128906 96.6875 351.957031 97.230469 352.1875 97.667969 C 352.347656 97.976562 352.660156 98.152344 352.984375 98.152344 " fill-opacity="1" fill-rule="nonzero"/></svg>