<svg xmlns="http://www.w3.org/2000/svg" xmlns:xlink="http://www.w3.org/1999/xlink" width="500" zoomAndPan="magnify" viewBox="0 0 375 30.000001" height="40" preserveAspectRatio="xMidYMid meet" version="1.0"><defs><clipPath id="2a3517db35"><path d="M 9.597656 3 L 33 3 L 33 26 L 9.597656 26 Z M 9.597656 3 " clip-rule="nonzero"/></clipPath><clipPath id="e293105bc0"><path d="M 342 3 L 365.242188 3 L 365.242188 26 L 342 26 Z M 342 3 " clip-rule="nonzero"/></clipPath></defs><g clip-path="url(#2a3517db35)"><path fill="#262103" d="M 11.164062 24.789062 C 9.585938 23.207031 9.585938 20.65625 11.164062 19.078125 L 25.96875 4.273438 C 27.546875 2.695312 30.097656 2.695312 31.675781 4.273438 C 33.257812 5.855469 33.257812 8.40625 31.675781 9.984375 L 16.875 24.789062 C 15.300781 26.359375 12.742188 26.359375 11.164062 24.789062 Z M 11.164062 24.789062 " fill-opacity="1" fill-rule="nonzero"/></g><path fill="#262103" d="M 32.734375 24.789062 C 31.15625 23.207031 31.15625 20.65625 32.734375 19.078125 L 47.539062 4.273438 C 49.117188 2.695312 51.667969 2.695312 53.246094 4.273438 C 54.828125 5.855469 54.828125 8.40625 53.246094 9.984375 L 38.445312 24.789062 C 36.863281 26.359375 34.308594 26.359375 32.734375 24.789062 Z M 32.734375 24.789062 " fill-opacity="1" fill-rule="nonzero"/><path fill="#262103" d="M 55.535156 24.789062 C 53.953125 23.207031 53.953125 20.65625 55.535156 19.078125 L 70.335938 4.273438 C 71.917969 2.695312 74.46875 2.695312 76.046875 4.273438 C 77.625 5.855469 77.625 8.40625 76.046875 9.984375 L 61.242188 24.789062 C 59.671875 26.359375 57.113281 26.359375 55.535156 24.789062 Z M 55.535156 24.789062 " fill-opacity="1" fill-rule="nonzero"/><path fill="#262103" d="M 77.105469 24.789062 C 75.523438 23.207031 75.523438 20.65625 77.105469 19.078125 L 91.90625 4.273438 C 93.488281 2.695312 96.039062 2.695312 97.617188 4.273438 C 99.195312 5.855469 99.195312 8.40625 97.617188 9.984375 L 82.8125 24.789062 C 81.234375 26.359375 78.675781 26.359375 77.105469 24.789062 Z M 77.105469 24.789062 " fill-opacity="1" fill-rule="nonzero"/><path fill="#262103" d="M 99.902344 24.789062 C 98.324219 23.207031 98.324219 20.65625 99.902344 19.078125 L 114.707031 4.273438 C 116.285156 2.695312 118.835938 2.695312 120.417969 4.273438 C 121.996094 5.855469 121.996094 8.40625 120.417969 9.984375 L 105.613281 24.789062 C 104.039062 26.359375 101.484375 26.359375 99.902344 24.789062 Z M 99.902344 24.789062 " fill-opacity="1" fill-rule="nonzero"/><path fill="#262103" d="M 121.472656 24.789062 C 119.894531 23.207031 119.894531 20.65625 121.472656 19.078125 L 136.277344 4.273438 C 137.855469 2.695312 140.40625 2.695312 141.988281 4.273438 C 143.566406 5.855469 143.566406 8.40625 141.988281 9.984375 L 127.183594 24.789062 C 125.605469 26.359375 123.046875 26.359375 121.472656 24.789062 Z M 121.472656 24.789062 " fill-opacity="1" fill-rule="nonzero"/><path fill="#262103" d="M 144.273438 24.789062 C 142.695312 23.207031 142.695312 20.65625 144.273438 19.078125 L 159.078125 4.273438 C 160.65625 2.695312 163.207031 2.695312 164.785156 4.273438 C 166.367188 5.855469 166.367188 8.40625 164.785156 9.984375 L 149.984375 24.789062 C 148.410156 26.359375 145.851562 26.359375 144.273438 24.789062 Z M 144.273438 24.789062 " fill-opacity="1" fill-rule="nonzero"/><path fill="#262103" d="M 165.84375 24.789062 C 164.265625 23.207031 164.265625 20.65625 165.84375 19.078125 L 180.648438 4.273438 C 182.226562 2.695312 184.777344 2.695312 186.355469 4.273438 C 187.9375 5.855469 187.9375 8.40625 186.355469 9.984375 L 171.554688 24.789062 C 169.972656 26.359375 167.417969 26.359375 165.84375 24.789062 Z M 165.84375 24.789062 " fill-opacity="1" fill-rule="nonzero"/><path fill="#262103" d="M 188.644531 24.789062 C 187.0625 23.207031 187.0625 20.65625 188.644531 19.078125 L 203.445312 4.273438 C 205.027344 2.695312 207.578125 2.695312 209.15625 4.273438 C 210.734375 5.855469 210.734375 8.40625 209.15625 9.984375 L 194.351562 24.789062 C 192.78125 26.359375 190.222656 26.359375 188.644531 24.789062 Z M 188.644531 24.789062 " fill-opacity="1" fill-rule="nonzero"/><path fill="#262103" d="M 210.214844 24.789062 C 208.632812 23.207031 208.632812 20.65625 210.214844 19.078125 L 225.015625 4.273438 C 226.597656 2.695312 229.148438 2.695312 230.726562 4.273438 C 232.304688 5.855469 232.304688 8.40625 230.726562 9.984375 L 215.921875 24.789062 C 214.34375 26.359375 211.785156 26.359375 210.214844 24.789062 Z M 210.214844 24.789062 " fill-opacity="1" fill-rule="nonzero"/><path fill="#262103" d="M 233.011719 24.789062 C 231.433594 23.207031 231.433594 20.65625 233.011719 19.078125 L 247.816406 4.273438 C 249.394531 2.695312 251.945312 2.695312 253.527344 4.273438 C 255.105469 5.855469 255.105469 8.40625 253.527344 9.984375 L 238.722656 24.789062 C 237.148438 26.359375 234.59375 26.359375 233.011719 24.789062 Z M 233.011719 24.789062 " fill-opacity="1" fill-rule="nonzero"/><path fill="#262103" d="M 254.582031 24.789062 C 253.003906 23.207031 253.003906 20.65625 254.582031 19.078125 L 269.386719 4.273438 C 270.964844 2.695312 273.515625 2.695312 275.097656 4.273438 C 276.675781 5.855469 276.675781 8.40625 275.097656 9.984375 L 260.292969 24.789062 C 258.714844 26.359375 256.15625 26.359375 254.582031 24.789062 Z M 254.582031 24.789062 " fill-opacity="1" fill-rule="nonzero"/><path fill="#262103" d="M 277.382812 24.789062 C 275.804688 23.207031 275.804688 20.65625 277.382812 19.078125 L 292.1875 4.273438 C 293.765625 2.695312 296.316406 2.695312 297.894531 4.273438 C 299.476562 5.855469 299.476562 8.40625 297.894531 9.984375 L 283.09375 24.789062 C 281.519531 26.359375 278.960938 26.359375 277.382812 24.789062 Z M 277.382812 24.789062 " fill-opacity="1" fill-rule="nonzero"/><path fill="#262103" d="M 298.953125 24.789062 C 297.375 23.207031 297.375 20.65625 298.953125 19.078125 L 313.757812 4.273438 C 315.335938 2.695312 317.886719 2.695312 319.464844 4.273438 C 321.046875 5.855469 321.046875 8.40625 319.464844 9.984375 L 304.664062 24.789062 C 303.082031 26.359375 300.527344 26.359375 298.953125 24.789062 Z M 298.953125 24.789062 " fill-opacity="1" fill-rule="nonzero"/><path fill="#262103" d="M 321.753906 24.789062 C 320.171875 23.207031 320.171875 20.65625 321.753906 19.078125 L 336.554688 4.273438 C 338.136719 2.695312 340.6875 2.695312 342.265625 4.273438 C 343.84375 5.855469 343.84375 8.40625 342.265625 9.984375 L 327.460938 24.789062 C 325.890625 26.359375 323.332031 26.359375 321.753906 24.789062 Z M 321.753906 24.789062 " fill-opacity="1" fill-rule="nonzero"/><g clip-path="url(#e293105bc0)"><path fill="#262103" d="M 343.324219 24.789062 C 341.742188 23.207031 341.742188 20.65625 343.324219 19.078125 L 358.125 4.273438 C 359.707031 2.695312 362.257812 2.695312 363.835938 4.273438 C 365.414062 5.855469 365.414062 8.40625 363.835938 9.984375 L 349.03125 24.789062 C 347.453125 26.359375 344.894531 26.359375 343.324219 24.789062 Z M 343.324219 24.789062 " fill-opacity="1" fill-rule="nonzero"/></g></svg>