<svg xmlns="http://www.w3.org/2000/svg" xmlns:xlink="http://www.w3.org/1999/xlink" width="500" zoomAndPan="magnify" viewBox="0 0 375 30.000001" height="40" preserveAspectRatio="xMidYMid meet" version="1.0"><defs><clipPath id="9ff2c55870"><path d="M 26 3 L 349 3 L 349 26.535156 L 26 26.535156 Z M 26 3 " clip-rule="nonzero"/></clipPath></defs><g clip-path="url(#9ff2c55870)"><path fill="#262103" d="M 48.015625 15.542969 C 50.464844 11.078125 53.632812 7.855469 58.953125 8.039062 C 64.273438 8.222656 66.984375 12.027344 69.355469 16.039062 C 70.753906 14.285156 72.066406 12.53125 73.488281 10.855469 C 78.070312 5.480469 82.941406 6 88.046875 8.851562 C 89.226562 9.507812 90.261719 10.339844 91.152344 11.355469 C 92.042969 12.371094 92.738281 13.507812 93.234375 14.765625 C 93.402344 15.171875 93.605469 15.5625 93.863281 16.117188 C 94.484375 15.089844 94.988281 14.1875 95.519531 13.3125 C 97.15625 10.675781 99.449219 8.816406 102.285156 7.582031 C 105.421875 6.21875 108.34375 6.742188 110.808594 8.921875 C 112.628906 10.539062 114.105469 12.542969 115.71875 14.386719 C 115.945312 14.671875 116.152344 14.972656 116.335938 15.285156 C 118.339844 13.28125 120.203125 11.160156 122.320312 9.335938 C 124.738281 7.25 127.609375 6.578125 130.570312 8.140625 C 132.066406 8.90625 133.390625 9.898438 134.546875 11.117188 C 136.050781 12.75 137.222656 14.671875 138.484375 16.398438 C 139.109375 15.242188 139.699219 13.703125 140.667969 12.460938 C 141.960938 10.800781 143.34375 9.085938 145.042969 7.902344 C 148.28125 5.648438 151.851562 6.058594 154.832031 8.65625 C 157.199219 10.710938 158.925781 13.257812 160.285156 16.066406 C 160.515625 16.539062 160.75 17.007812 161.117188 17.75 C 161.367188 17.054688 161.523438 16.652344 161.667969 16.246094 C 162.539062 13.6875 163.863281 11.386719 165.640625 9.347656 C 167.453125 7.296875 169.769531 6.710938 172.40625 6.84375 C 176.648438 7.035156 179.046875 9.816406 181.058594 13.019531 C 182 14.523438 182.535156 16.277344 183.175781 17.722656 C 184.464844 15.957031 185.71875 13.992188 187.222656 12.242188 C 189.101562 10.070312 191.363281 8.363281 194.242188 7.675781 C 198.414062 6.6875 201.707031 7.875 204.125 11.492188 C 205.0625 12.894531 205.628906 14.539062 206.359375 16.085938 C 206.566406 16.519531 206.710938 16.980469 206.996094 17.734375 C 207.320312 16.730469 207.550781 16.078125 207.75 15.40625 C 208.667969 12.367188 210.550781 10.035156 213.089844 8.203125 C 216.207031 5.945312 219.539062 5.867188 222.789062 7.949219 C 225.867188 9.917969 227.84375 12.742188 229.113281 16.113281 C 229.257812 16.503906 229.414062 16.886719 229.570312 17.265625 C 229.582031 17.296875 229.640625 17.304688 229.691406 17.328125 C 230.628906 15.984375 231.417969 14.484375 232.550781 13.320312 C 233.953125 11.875 235.46875 10.359375 237.238281 9.488281 C 241.609375 7.339844 245.871094 8.53125 248.894531 12.503906 C 249.996094 13.957031 250.804688 15.628906 251.738281 17.203125 C 251.988281 17.628906 252.210938 18.070312 252.597656 18.789062 C 252.882812 17.972656 253.082031 17.417969 253.269531 16.855469 C 254.289062 13.804688 255.746094 11.027344 258.222656 8.871094 C 261.875 5.691406 266.636719 5.734375 269.847656 9.355469 C 271.585938 11.316406 272.773438 13.777344 274.171875 16.035156 C 274.515625 16.59375 274.714844 17.242188 275.078125 18.066406 C 275.472656 17.1875 275.773438 16.496094 276.082031 15.8125 C 277.390625 12.96875 279.121094 10.4375 281.617188 8.496094 C 286.378906 4.789062 292.085938 5.675781 295.320312 10.785156 C 296.464844 12.59375 297.171875 14.683594 298.078125 16.65625 C 298.28125 17.105469 298.421875 17.582031 298.703125 18.34375 C 298.914062 17.769531 299.046875 17.457031 299.144531 17.136719 C 300.289062 13.378906 301.824219 9.867188 304.789062 7.125 C 309.1875 3.058594 314.585938 3.558594 317.804688 8.613281 C 319.308594 10.976562 320.183594 13.734375 321.332031 16.316406 C 321.53125 16.761719 321.667969 17.230469 321.804688 17.609375 C 323.183594 15.175781 324.335938 12.65625 325.945312 10.46875 C 327.320312 8.570312 328.964844 6.945312 330.878906 5.589844 C 335.277344 2.582031 339.417969 3.4375 342.480469 7.796875 C 343.46875 9.25 344.292969 10.789062 344.957031 12.414062 C 346.171875 15.292969 347.25 18.230469 348.324219 21.164062 C 348.734375 22.28125 348.324219 23.167969 347.421875 23.398438 C 346.332031 23.664062 345.742188 23.148438 345.351562 22.121094 C 344.097656 18.859375 342.863281 15.574219 341.445312 12.371094 C 340.789062 10.96875 339.953125 9.683594 338.941406 8.515625 C 337.570312 6.878906 335.945312 6.609375 333.96875 7.460938 C 331.992188 8.3125 330.40625 9.761719 329.054688 11.441406 C 326.761719 14.28125 325.34375 17.554688 324.308594 21.023438 C 324.074219 21.867188 323.785156 22.691406 323.445312 23.496094 C 323.085938 24.316406 322.457031 24.863281 321.480469 24.75 C 320.503906 24.636719 320.132812 23.929688 319.871094 23.066406 C 318.910156 19.882812 318.015625 16.664062 316.863281 13.542969 C 316.277344 12.058594 315.46875 10.707031 314.445312 9.480469 C 312.609375 7.195312 310.1875 7 307.824219 8.730469 C 305.851562 10.179688 304.496094 12.105469 303.519531 14.320312 C 302.199219 17.375 301.445312 20.566406 301.261719 23.890625 C 301.191406 24.972656 301.164062 26.042969 299.800781 26.289062 C 298.914062 26.449219 297.5 25.429688 297.152344 24.355469 C 296.746094 23.085938 296.484375 21.765625 296.019531 20.519531 C 295.109375 18.0625 294.160156 15.617188 293.109375 13.21875 C 292.75 12.40625 292.105469 11.675781 291.464844 11.03125 C 289.574219 9.132812 287.140625 8.851562 284.820312 10.195312 C 281.652344 12.019531 279.828125 14.917969 278.507812 18.195312 C 277.960938 19.546875 277.503906 20.941406 277.003906 22.304688 C 276.644531 23.253906 276.113281 24.042969 274.9375 23.980469 C 273.855469 23.917969 273.601562 23.058594 273.230469 22.238281 C 271.859375 19.25 270.5 16.253906 269.011719 13.335938 C 268.558594 12.433594 267.761719 11.648438 267.007812 10.96875 C 265.269531 9.445312 262.972656 9.292969 261.144531 10.699219 C 259.957031 11.570312 258.957031 12.613281 258.136719 13.835938 C 256.304688 16.761719 255.351562 20.058594 254.894531 23.476562 C 254.765625 24.464844 254.472656 25.164062 253.402344 25.304688 C 252.078125 25.484375 251.359375 25.054688 250.914062 23.964844 C 249.941406 21.578125 248.992188 19.179688 247.90625 16.839844 C 247.402344 15.828125 246.777344 14.894531 246.027344 14.046875 C 243.609375 11.171875 240.230469 10.789062 237.253906 13.070312 C 234.5625 15.132812 232.804688 17.886719 231.761719 21.105469 C 231.566406 21.699219 231.496094 22.40625 231.121094 22.859375 C 230.683594 23.375 229.972656 23.957031 229.386719 23.953125 C 228.863281 23.953125 228.132812 23.292969 227.882812 22.742188 C 227.40625 21.691406 227.210938 20.515625 226.902344 19.390625 C 226.085938 16.398438 224.792969 13.648438 222.390625 11.59375 C 219.550781 9.152344 217.128906 8.808594 214.160156 11.40625 C 212.605469 12.761719 211.367188 14.28125 210.84375 16.292969 C 210.292969 18.429688 209.769531 20.574219 209.316406 22.734375 C 209.101562 23.753906 208.78125 24.554688 207.652344 24.8125 C 206.398438 25.09375 205.683594 24.671875 205.304688 23.425781 C 204.613281 21.109375 203.964844 18.777344 203.15625 16.5 C 202.730469 15.320312 202.152344 14.214844 201.429688 13.1875 C 199.421875 10.320312 196.371094 9.65625 193.296875 11.390625 C 190.558594 12.917969 188.453125 15.058594 186.972656 17.820312 C 186.097656 19.433594 185.351562 21.113281 184.566406 22.769531 C 184.144531 23.664062 183.582031 24.359375 182.480469 24.210938 C 181.421875 24.0625 181.210938 23.207031 180.9375 22.335938 C 180.121094 19.722656 179.34375 17.070312 178.277344 14.566406 C 177.644531 13.0625 176.640625 11.671875 174.648438 11.53125 C 174.027344 11.488281 173.394531 11.054688 172.847656 10.699219 C 171.242188 9.667969 169.800781 9.566406 168.527344 11.027344 C 167.117188 12.621094 165.972656 14.382812 165.089844 16.316406 C 164.265625 18.195312 163.960938 20.316406 163.519531 22.347656 C 163.3125 23.3125 162.945312 23.988281 161.898438 24.101562 C 160.785156 24.230469 160.09375 23.742188 159.679688 22.703125 C 159.015625 21.039062 158.445312 19.308594 157.550781 17.769531 C 156.296875 15.664062 154.917969 13.644531 153.410156 11.707031 C 152.855469 10.980469 151.957031 10.453125 151.121094 10.019531 C 150.03125 9.445312 148.984375 9.601562 147.8125 10.195312 C 144.507812 11.886719 142.546875 14.589844 141.375 17.992188 C 140.902344 19.375 140.4375 20.757812 139.980469 22.140625 C 139.6875 23.035156 139.089844 23.582031 138.152344 23.574219 C 137.214844 23.566406 136.800781 22.882812 136.566406 22.070312 C 136.21875 20.871094 135.875 19.664062 135.5 18.472656 C 134.546875 15.433594 132.609375 13.148438 130 11.40625 C 128.269531 10.25 126.46875 10.109375 124.777344 11.464844 C 123.480469 12.503906 122.238281 13.609375 121.054688 14.777344 C 119.203125 16.601562 118.796875 18.894531 119.21875 21.375 C 119.46875 22.824219 119.167969 23.507812 118.144531 23.75 C 116.917969 24.039062 115.890625 23.511719 115.5625 22.210938 C 114.691406 18.835938 113.21875 15.8125 110.84375 13.226562 C 106.714844 8.746094 104.4375 9.324219 100.535156 12.355469 C 97.894531 14.414062 96.578125 17.34375 95.867188 20.570312 C 95.722656 21.21875 95.730469 21.976562 95.382812 22.492188 C 95.007812 23.042969 94.347656 23.617188 93.726562 23.742188 C 92.910156 23.898438 92.429688 23.195312 92.222656 22.386719 C 91.722656 20.492188 91.304688 18.566406 90.644531 16.726562 C 89.222656 12.816406 86.214844 10.78125 82.253906 10.027344 C 80.621094 9.71875 79.089844 10.003906 77.800781 11.140625 C 74.988281 13.613281 72.285156 16.183594 71.761719 20.175781 C 71.699219 20.660156 71.875 21.179688 71.746094 21.644531 C 71.578125 22.234375 71.335938 23.082031 70.90625 23.242188 C 70.21875 23.414062 69.597656 23.277344 69.046875 22.832031 C 68.480469 22.289062 68.234375 21.414062 67.847656 20.679688 C 66.734375 18.59375 65.859375 16.324219 64.457031 14.453125 C 61.03125 9.878906 55.746094 9.957031 52.425781 14.589844 C 51.207031 16.285156 50.476562 18.351562 49.558594 20.238281 C 49.324219 20.722656 49.332031 21.386719 48.992188 21.742188 C 48.570312 22.175781 47.878906 22.652344 47.367188 22.609375 C 46.851562 22.566406 46.210938 21.925781 46.03125 21.40625 C 45.65625 20.316406 45.554688 19.128906 45.332031 17.984375 C 44.816406 15.304688 43.707031 12.894531 42.011719 10.757812 C 39.144531 7.109375 35.496094 7.089844 32.351562 10.46875 C 30.1875 12.796875 29.699219 15.589844 29.527344 18.542969 C 29.480469 19.378906 29.527344 20.214844 29.445312 21.050781 C 29.351562 22.050781 28.8125 22.699219 27.734375 22.636719 C 26.695312 22.574219 26.257812 21.855469 26.3125 20.925781 C 26.453125 18.667969 26.511719 16.414062 26.898438 14.203125 C 27.699219 9.648438 31.910156 5.648438 36.378906 4.851562 C 38.292969 4.511719 39.910156 5.167969 41.46875 6.105469 C 44.5625 7.984375 46.234375 10.9375 47.503906 14.175781 C 47.652344 14.558594 47.785156 14.9375 48.015625 15.542969 Z M 48.015625 15.542969 " fill-opacity="1" fill-rule="nonzero"/></g></svg>