<svg xmlns="http://www.w3.org/2000/svg" xmlns:xlink="http://www.w3.org/1999/xlink" width="500" zoomAndPan="magnify" viewBox="0 0 375 149.999998" height="200" preserveAspectRatio="xMidYMid meet" version="1.0"><defs><clipPath id="633c7f07d0"><path d="M 36 56 L 342 56 L 342 135 L 36 135 Z M 36 56 " clip-rule="nonzero"/></clipPath><clipPath id="3589bffef8"><path d="M 175.425781 -112.5 L 372.707031 84.785156 L 195.046875 262.445312 L -2.234375 65.160156 Z M 175.425781 -112.5 " clip-rule="nonzero"/></clipPath><clipPath id="10c24e37a9"><path d="M 175.425781 -112.5 L 372.707031 84.785156 L 195.046875 262.445312 L -2.234375 65.160156 Z M 175.425781 -112.5 " clip-rule="nonzero"/></clipPath><clipPath id="3b8c8601d3"><path d="M 5 52 L 32 52 L 32 79 L 5 79 Z M 5 52 " clip-rule="nonzero"/></clipPath><clipPath id="2b755e356b"><path d="M 175.425781 -112.5 L 372.707031 84.785156 L 195.046875 262.445312 L -2.234375 65.160156 Z M 175.425781 -112.5 " clip-rule="nonzero"/></clipPath><clipPath id="cc9cf6cdf3"><path d="M 175.425781 -112.5 L 372.707031 84.785156 L 195.046875 262.445312 L -2.234375 65.160156 Z M 175.425781 -112.5 " clip-rule="nonzero"/></clipPath><clipPath id="9a8367e154"><path d="M 339 71 L 366 71 L 366 98 L 339 98 Z M 339 71 " clip-rule="nonzero"/></clipPath><clipPath id="5824ac3cc1"><path d="M 175.425781 -112.5 L 372.707031 84.785156 L 195.046875 262.445312 L -2.234375 65.160156 Z M 175.425781 -112.5 " clip-rule="nonzero"/></clipPath><clipPath id="9bf577069b"><path d="M 175.425781 -112.5 L 372.707031 84.785156 L 195.046875 262.445312 L -2.234375 65.160156 Z M 175.425781 -112.5 " clip-rule="nonzero"/></clipPath></defs><g clip-path="url(#633c7f07d0)"><g clip-path="url(#3589bffef8)"><g clip-path="url(#10c24e37a9)"><path fill="#ffffff" d="M 328.085938 112.203125 C 328.050781 112.167969 328.019531 112.132812 327.988281 112.097656 C 327.367188 111.363281 327.457031 110.265625 328.1875 109.644531 C 330.488281 107.695312 332.765625 105.59375 334.957031 103.40625 C 336.078125 102.28125 337.199219 101.117188 338.285156 99.9375 C 338.9375 99.230469 340.039062 99.183594 340.746094 99.835938 C 341.453125 100.488281 341.496094 101.589844 340.84375 102.296875 C 339.726562 103.507812 338.574219 104.710938 337.417969 105.863281 C 335.160156 108.121094 332.8125 110.285156 330.4375 112.296875 C 329.742188 112.886719 328.71875 112.835938 328.085938 112.203125 Z M 304.089844 127.304688 C 303.941406 127.15625 303.816406 126.976562 303.726562 126.769531 C 303.34375 125.886719 303.746094 124.863281 304.628906 124.480469 C 308.816406 122.660156 312.960938 120.457031 316.941406 117.9375 C 317.75 117.421875 318.824219 117.664062 319.339844 118.476562 C 319.855469 119.289062 319.613281 120.363281 318.800781 120.875 C 314.671875 123.492188 310.367188 125.777344 306.015625 127.671875 C 305.339844 127.964844 304.582031 127.796875 304.089844 127.304688 Z M 276.640625 134.195312 C 276.355469 133.910156 276.171875 133.53125 276.136719 133.105469 C 276.058594 132.148438 276.769531 131.308594 277.726562 131.230469 C 282.371094 130.851562 286.988281 130.09375 291.457031 128.972656 C 292.386719 128.738281 293.332031 129.304688 293.566406 130.234375 C 293.800781 131.167969 293.234375 132.113281 292.300781 132.347656 C 287.652344 133.515625 282.84375 134.304688 278.011719 134.699219 C 277.480469 134.742188 276.988281 134.542969 276.640625 134.195312 Z M 248.386719 132.207031 C 247.984375 131.804688 247.785156 131.210938 247.914062 130.613281 C 248.113281 129.671875 249.039062 129.074219 249.976562 129.273438 C 254.628906 130.265625 259.28125 130.9375 263.796875 131.265625 C 264.757812 131.339844 265.476562 132.171875 265.40625 133.128906 C 265.335938 134.089844 264.503906 134.808594 263.542969 134.738281 C 258.867188 134.394531 254.058594 133.703125 249.253906 132.675781 C 248.914062 132.605469 248.617188 132.4375 248.386719 132.207031 Z M 221.488281 123.183594 C 220.988281 122.6875 220.824219 121.914062 221.132812 121.238281 C 221.527344 120.359375 222.558594 119.972656 223.433594 120.367188 C 227.8125 122.347656 232.203125 124.085938 236.484375 125.539062 C 237.394531 125.847656 237.882812 126.835938 237.574219 127.746094 C 237.265625 128.65625 236.277344 129.144531 235.367188 128.832031 C 230.980469 127.347656 226.480469 125.566406 222 123.539062 C 221.804688 123.449219 221.632812 123.328125 221.488281 123.183594 Z M 196.621094 109.457031 C 196.054688 108.890625 195.9375 107.984375 196.390625 107.28125 C 196.914062 106.476562 197.992188 106.246094 198.796875 106.769531 C 202.839844 109.386719 206.902344 111.832031 210.875 114.035156 C 211.710938 114.5 212.015625 115.5625 211.550781 116.402344 C 211.082031 117.242188 210.023438 117.542969 209.183594 117.078125 C 205.144531 114.835938 201.011719 112.351562 196.90625 109.6875 C 196.800781 109.621094 196.707031 109.542969 196.621094 109.457031 Z M 172.746094 94.011719 C 172.195312 93.460938 172.066406 92.589844 172.480469 91.890625 C 172.972656 91.066406 174.042969 90.796875 174.867188 91.289062 C 178.878906 93.683594 182.957031 96.230469 186.984375 98.867188 C 187.789062 99.394531 188.011719 100.472656 187.488281 101.277344 C 186.960938 102.082031 185.882812 102.304688 185.078125 101.78125 C 181.089844 99.171875 177.054688 96.644531 173.085938 94.277344 C 172.957031 94.199219 172.84375 94.109375 172.746094 94.011719 Z M 147.6875 80.578125 C 147.179688 80.074219 147.019531 79.285156 147.347656 78.601562 C 147.757812 77.734375 148.796875 77.367188 149.664062 77.777344 C 153.886719 79.78125 158.179688 81.953125 162.429688 84.238281 C 163.273438 84.691406 163.59375 85.746094 163.136719 86.589844 C 162.683594 87.4375 161.628906 87.757812 160.78125 87.300781 C 156.585938 85.046875 152.339844 82.902344 148.171875 80.921875 C 147.984375 80.832031 147.824219 80.714844 147.6875 80.578125 Z M 121.371094 69.824219 C 120.917969 69.371094 120.734375 68.679688 120.957031 68.03125 C 121.265625 67.121094 122.253906 66.636719 123.164062 66.949219 C 127.59375 68.460938 132.101562 70.15625 136.570312 71.988281 C 137.460938 72.351562 137.886719 73.367188 137.523438 74.253906 C 137.15625 75.144531 136.140625 75.570312 135.253906 75.207031 C 130.847656 73.402344 126.402344 71.730469 122.039062 70.238281 C 121.78125 70.152344 121.554688 70.007812 121.371094 69.824219 Z M 93.925781 62.453125 C 93.527344 62.054688 93.332031 61.476562 93.445312 60.890625 C 93.628906 59.945312 94.542969 59.328125 95.484375 59.511719 C 100.089844 60.40625 104.789062 61.496094 109.457031 62.753906 C 110.386719 63.003906 110.933594 63.960938 110.683594 64.886719 C 110.433594 65.816406 109.480469 66.363281 108.550781 66.113281 C 103.964844 64.875 99.34375 63.804688 94.824219 62.929688 C 94.46875 62.859375 94.160156 62.6875 93.925781 62.453125 Z M 65.6875 59.285156 C 65.363281 58.960938 65.164062 58.503906 65.179688 58.007812 C 65.203125 57.046875 66.003906 56.289062 66.964844 56.316406 C 71.664062 56.441406 76.488281 56.78125 81.296875 57.328125 C 82.25 57.4375 82.9375 58.296875 82.828125 59.253906 C 82.722656 60.207031 81.859375 60.894531 80.90625 60.785156 C 76.195312 60.25 71.472656 59.917969 66.871094 59.792969 C 66.40625 59.78125 65.992188 59.589844 65.6875 59.285156 Z M 37.347656 61.226562 C 37.101562 60.980469 36.929688 60.660156 36.867188 60.292969 C 36.703125 59.34375 37.339844 58.445312 38.285156 58.285156 C 42.921875 57.488281 47.734375 56.917969 52.585938 56.59375 C 53.542969 56.53125 54.375 57.253906 54.4375 58.210938 C 54.5 59.171875 53.777344 60 52.816406 60.066406 C 48.085938 60.382812 43.394531 60.9375 38.875 61.710938 C 38.296875 61.8125 37.734375 61.613281 37.347656 61.226562 " fill-opacity="1" fill-rule="nonzero"/></g></g></g><g clip-path="url(#3b8c8601d3)"><g clip-path="url(#2b755e356b)"><g clip-path="url(#cc9cf6cdf3)"><path fill="#ffffff" d="M 24.113281 77.082031 C 17.527344 80.050781 9.777344 77.113281 6.8125 70.527344 C 3.84375 63.941406 6.777344 56.195312 13.367188 53.226562 C 19.953125 50.261719 27.699219 53.195312 30.667969 59.78125 C 33.632812 66.367188 30.699219 74.117188 24.113281 77.082031 " fill-opacity="1" fill-rule="nonzero"/></g></g></g><g clip-path="url(#9a8367e154)"><g clip-path="url(#5824ac3cc1)"><g clip-path="url(#9bf577069b)"><path fill="#ffffff" d="M 363.578125 91.421875 C 367.207031 85.175781 365.085938 77.167969 358.84375 73.539062 C 352.597656 69.90625 344.589844 72.027344 340.957031 78.273438 C 337.328125 84.519531 339.449219 92.527344 345.691406 96.15625 C 351.9375 99.785156 359.945312 97.667969 363.578125 91.421875 " fill-opacity="1" fill-rule="nonzero"/></g></g></g></svg>