<svg xmlns="http://www.w3.org/2000/svg" xmlns:xlink="http://www.w3.org/1999/xlink" width="500" zoomAndPan="magnify" viewBox="0 0 375 374.999991" height="500" preserveAspectRatio="xMidYMid meet" version="1.0"><defs><clipPath id="de2f0eeded"><path d="M 3.164062 3 L 372 3 L 372 371.835938 L 3.164062 371.835938 Z M 3.164062 3 " clip-rule="nonzero"/></clipPath></defs><g clip-path="url(#de2f0eeded)"><path fill="#262103" d="M 326.835938 7.6875 L 326.835938 294.222656 L 303.375 294.222656 L 303.375 7.6875 C 303.375 5.171875 301.332031 3.128906 298.816406 3.128906 C 296.300781 3.128906 294.257812 5.171875 294.257812 7.6875 L 294.257812 294.222656 L 7.722656 294.222656 C 5.203125 294.222656 3.164062 296.265625 3.164062 298.78125 C 3.164062 301.300781 5.203125 303.339844 7.722656 303.339844 L 294.257812 303.339844 L 294.257812 326.804688 L 7.722656 326.804688 C 5.203125 326.804688 3.164062 328.84375 3.164062 331.363281 C 3.164062 333.878906 5.203125 335.921875 7.722656 335.921875 L 294.257812 335.921875 L 294.257812 367.277344 C 294.257812 369.792969 296.300781 371.835938 298.816406 371.835938 C 301.332031 371.835938 303.375 369.792969 303.375 367.277344 L 303.375 335.921875 L 326.835938 335.921875 L 326.835938 367.277344 C 326.835938 369.792969 328.878906 371.835938 331.394531 371.835938 C 333.914062 371.835938 335.953125 369.792969 335.953125 367.277344 L 335.953125 335.921875 L 367.3125 335.921875 C 369.828125 335.921875 371.871094 333.878906 371.871094 331.363281 C 371.871094 328.84375 369.828125 326.804688 367.3125 326.804688 L 335.953125 326.804688 L 335.953125 303.339844 L 367.3125 303.339844 C 369.828125 303.339844 371.871094 301.300781 371.871094 298.78125 C 371.871094 296.265625 369.828125 294.222656 367.3125 294.222656 L 335.953125 294.222656 L 335.953125 7.6875 C 335.953125 5.171875 333.914062 3.128906 331.394531 3.128906 C 328.878906 3.128906 326.835938 5.171875 326.835938 7.6875 Z M 326.835938 326.804688 L 303.375 326.804688 L 303.375 303.339844 L 326.835938 303.339844 Z M 326.835938 326.804688 " fill-opacity="1" fill-rule="nonzero"/></g></svg>