<svg xmlns="http://www.w3.org/2000/svg" xmlns:xlink="http://www.w3.org/1999/xlink" width="500" zoomAndPan="magnify" viewBox="0 0 375 262.499992" height="350" preserveAspectRatio="xMidYMid meet" version="1.0"><defs><clipPath id="1abafddad3"><path d="M 0.355469 5.101562 L 374.640625 5.101562 L 374.640625 256.621094 L 0.355469 256.621094 Z M 0.355469 5.101562 " clip-rule="nonzero"/></clipPath></defs><g clip-path="url(#1abafddad3)"><path fill="#262103" d="M 374.644531 246.160156 C 374.644531 246.617188 374.507812 247.027344 374.238281 247.394531 C 373.96875 247.761719 373.617188 248.011719 373.183594 248.148438 C 373.003906 248.203125 368.78125 249.515625 361.472656 251.109375 C 361.203125 251.167969 360.933594 251.171875 360.660156 251.125 C 360.390625 251.074219 360.136719 250.976562 359.90625 250.828125 C 359.675781 250.679688 359.480469 250.492188 359.320312 250.261719 C 359.164062 250.035156 359.054688 249.789062 358.996094 249.519531 C 358.9375 249.25 358.933594 248.976562 358.984375 248.707031 C 359.03125 248.433594 359.132812 248.183594 359.28125 247.949219 C 359.429688 247.71875 359.617188 247.523438 359.84375 247.363281 C 360.070312 247.207031 360.320312 247.101562 360.589844 247.042969 C 367.695312 245.496094 371.902344 244.1875 371.945312 244.171875 C 372.101562 244.125 372.257812 244.09375 372.421875 244.082031 C 372.585938 244.074219 372.746094 244.082031 372.90625 244.109375 C 373.066406 244.132812 373.222656 244.179688 373.375 244.242188 C 373.523438 244.308594 373.664062 244.386719 373.796875 244.484375 C 373.925781 244.582031 374.046875 244.691406 374.152344 244.816406 C 374.257812 244.941406 374.347656 245.074219 374.417969 245.222656 C 374.492188 245.367188 374.550781 245.519531 374.585938 245.679688 C 374.625 245.835938 374.644531 245.996094 374.644531 246.160156 Z M 351.433594 251.304688 C 351.433594 251.550781 351.390625 251.789062 351.308594 252.019531 C 351.222656 252.25 351.101562 252.460938 350.941406 252.648438 C 350.78125 252.835938 350.59375 252.992188 350.378906 253.113281 C 350.164062 253.234375 349.9375 253.316406 349.691406 253.355469 C 345.773438 254 341.777344 254.554688 337.820312 255.011719 C 337.546875 255.042969 337.277344 255.019531 337.011719 254.945312 C 336.75 254.867188 336.507812 254.742188 336.292969 254.574219 C 336.074219 254.402344 335.902344 254.195312 335.765625 253.953125 C 335.632812 253.710938 335.550781 253.453125 335.519531 253.179688 C 335.488281 252.90625 335.507812 252.636719 335.585938 252.371094 C 335.660156 252.105469 335.785156 251.863281 335.957031 251.648438 C 336.128906 251.433594 336.332031 251.257812 336.574219 251.121094 C 336.816406 250.988281 337.074219 250.90625 337.347656 250.875 C 341.234375 250.429688 345.164062 249.882812 349.015625 249.246094 C 349.320312 249.195312 349.617188 249.210938 349.910156 249.292969 C 350.203125 249.375 350.46875 249.515625 350.703125 249.714844 C 350.933594 249.914062 351.113281 250.148438 351.242188 250.429688 C 351.371094 250.707031 351.433594 250.996094 351.433594 251.304688 Z M 327.828125 254.003906 C 327.828125 254.269531 327.777344 254.523438 327.679688 254.769531 C 327.585938 255.015625 327.445312 255.234375 327.265625 255.425781 C 327.085938 255.621094 326.875 255.773438 326.636719 255.886719 C 326.398438 255.996094 326.144531 256.0625 325.882812 256.078125 C 321.878906 256.339844 317.847656 256.496094 313.902344 256.542969 C 313.625 256.546875 313.359375 256.5 313.105469 256.394531 C 312.847656 256.292969 312.621094 256.144531 312.425781 255.953125 C 312.226562 255.761719 312.074219 255.539062 311.964844 255.285156 C 311.855469 255.03125 311.800781 254.765625 311.796875 254.488281 L 311.796875 254.464844 C 311.796875 254.191406 311.847656 253.925781 311.953125 253.671875 C 312.054688 253.421875 312.203125 253.195312 312.394531 253 C 312.589844 252.804688 312.808594 252.65625 313.0625 252.546875 C 313.3125 252.441406 313.574219 252.386719 313.847656 252.382812 C 317.722656 252.332031 321.683594 252.179688 325.613281 251.925781 C 325.890625 251.90625 326.15625 251.941406 326.417969 252.03125 C 326.679688 252.121094 326.914062 252.257812 327.121094 252.4375 C 327.328125 252.621094 327.492188 252.835938 327.613281 253.082031 C 327.734375 253.332031 327.804688 253.59375 327.824219 253.867188 C 327.828125 253.914062 327.828125 253.960938 327.828125 254.003906 Z M 304.074219 254.285156 C 304.074219 254.316406 304.074219 254.34375 304.074219 254.375 C 304.0625 254.652344 304 254.914062 303.882812 255.164062 C 303.765625 255.417969 303.605469 255.636719 303.402344 255.820312 C 303.199219 256.007812 302.96875 256.148438 302.707031 256.242188 C 302.449219 256.335938 302.179688 256.378906 301.90625 256.367188 C 297.875 256.195312 293.84375 255.902344 289.929688 255.5 C 289.65625 255.46875 289.402344 255.386719 289.164062 255.253906 C 288.925781 255.121094 288.71875 254.949219 288.546875 254.738281 C 288.375 254.523438 288.253906 254.285156 288.175781 254.023438 C 288.097656 253.761719 288.070312 253.492188 288.101562 253.222656 C 288.128906 252.949219 288.207031 252.691406 288.335938 252.449219 C 288.464844 252.210938 288.632812 252 288.84375 251.828125 C 289.054688 251.652344 289.292969 251.527344 289.554688 251.445312 C 289.8125 251.363281 290.082031 251.335938 290.351562 251.359375 C 294.1875 251.753906 298.136719 252.039062 302.082031 252.207031 C 302.351562 252.21875 302.605469 252.277344 302.851562 252.390625 C 303.09375 252.5 303.308594 252.652344 303.496094 252.84375 C 303.679688 253.039062 303.824219 253.261719 303.925781 253.507812 C 304.023438 253.757812 304.074219 254.015625 304.074219 254.285156 Z M 280.449219 251.84375 C 280.449219 251.957031 280.4375 252.074219 280.417969 252.1875 C 280.375 252.460938 280.277344 252.714844 280.132812 252.949219 C 279.984375 253.183594 279.800781 253.378906 279.574219 253.539062 C 279.351562 253.699219 279.105469 253.8125 278.835938 253.871094 C 278.566406 253.933594 278.296875 253.941406 278.023438 253.898438 C 274.035156 253.226562 270.070312 252.417969 266.242188 251.496094 C 265.972656 251.4375 265.722656 251.324219 265.496094 251.164062 C 265.273438 251 265.085938 250.800781 264.9375 250.566406 C 264.792969 250.328125 264.699219 250.074219 264.652344 249.800781 C 264.609375 249.527344 264.621094 249.253906 264.683594 248.984375 C 264.75 248.710938 264.863281 248.464844 265.027344 248.242188 C 265.191406 248.015625 265.390625 247.832031 265.628906 247.6875 C 265.867188 247.546875 266.121094 247.453125 266.398438 247.410156 C 266.671875 247.371094 266.945312 247.382812 267.210938 247.449219 C 270.949219 248.347656 274.816406 249.136719 278.714844 249.792969 C 278.953125 249.832031 279.183594 249.914062 279.394531 250.035156 C 279.609375 250.15625 279.796875 250.3125 279.953125 250.5 C 280.113281 250.6875 280.234375 250.898438 280.320312 251.128906 C 280.402344 251.359375 280.445312 251.597656 280.445312 251.84375 Z M 257.367188 246.269531 C 257.367188 246.433594 257.347656 246.59375 257.308594 246.753906 C 257.273438 246.914062 257.214844 247.066406 257.140625 247.210938 C 257.066406 247.359375 256.976562 247.496094 256.871094 247.617188 C 256.765625 247.742188 256.644531 247.855469 256.511719 247.949219 C 256.382812 248.046875 256.238281 248.128906 256.089844 248.191406 C 255.9375 248.253906 255.78125 248.296875 255.617188 248.324219 C 255.457031 248.351562 255.292969 248.355469 255.132812 248.34375 C 254.96875 248.332031 254.808594 248.300781 254.652344 248.25 C 250.800781 247.011719 246.996094 245.621094 243.34375 244.113281 C 243.082031 244.011719 242.851562 243.863281 242.648438 243.667969 C 242.449219 243.472656 242.292969 243.246094 242.183594 242.992188 C 242.074219 242.734375 242.019531 242.464844 242.015625 242.183594 C 242.015625 241.90625 242.066406 241.636719 242.171875 241.378906 C 242.277344 241.121094 242.429688 240.890625 242.628906 240.695312 C 242.828125 240.496094 243.058594 240.347656 243.316406 240.242188 C 243.574219 240.136719 243.84375 240.085938 244.125 240.089844 C 244.402344 240.09375 244.671875 240.152344 244.925781 240.265625 C 248.480469 241.730469 252.179688 243.085938 255.921875 244.289062 C 256.351562 244.425781 256.699219 244.679688 256.964844 245.042969 C 257.230469 245.410156 257.367188 245.816406 257.367188 246.269531 Z M 251.503906 60.101562 C 251.503906 60.160156 251.503906 60.214844 251.496094 60.269531 L 251.464844 60.679688 C 251.117188 64.707031 250.191406 68.597656 248.6875 72.351562 C 248.582031 72.605469 248.433594 72.832031 248.242188 73.03125 C 248.050781 73.226562 247.824219 73.378906 247.570312 73.488281 C 247.316406 73.597656 247.054688 73.652344 246.777344 73.65625 C 246.5 73.660156 246.234375 73.609375 245.980469 73.503906 C 245.722656 73.402344 245.496094 73.253906 245.300781 73.0625 C 245.101562 72.867188 244.949219 72.644531 244.84375 72.390625 C 244.734375 72.136719 244.679688 71.871094 244.675781 71.59375 C 244.671875 71.320312 244.722656 71.050781 244.824219 70.796875 C 246.175781 67.425781 247.007812 63.933594 247.320312 60.316406 L 247.351562 59.9375 C 247.371094 59.667969 247.441406 59.414062 247.5625 59.171875 C 247.679688 58.929688 247.839844 58.71875 248.042969 58.539062 C 248.242188 58.363281 248.46875 58.226562 248.722656 58.136719 C 248.976562 58.042969 249.238281 58.003906 249.507812 58.015625 C 249.777344 58.027344 250.03125 58.085938 250.277344 58.199219 C 250.523438 58.308594 250.738281 58.460938 250.925781 58.65625 C 251.113281 58.851562 251.253906 59.074219 251.355469 59.324219 C 251.457031 59.574219 251.503906 59.832031 251.503906 60.101562 Z M 251.476562 48.230469 C 251.476562 48.5 251.425781 48.757812 251.328125 49.003906 C 251.226562 49.253906 251.085938 49.472656 250.898438 49.667969 C 250.714844 49.859375 250.5 50.011719 250.257812 50.121094 C 250.015625 50.234375 249.757812 50.292969 249.492188 50.304688 C 249.226562 50.316406 248.964844 50.28125 248.714844 50.191406 C 248.460938 50.105469 248.234375 49.972656 248.035156 49.796875 C 247.832031 49.621094 247.671875 49.414062 247.546875 49.175781 C 247.425781 48.9375 247.351562 48.6875 247.328125 48.417969 C 246.988281 44.605469 246.253906 40.867188 245.125 37.207031 C 245.039062 36.945312 245.007812 36.671875 245.027344 36.394531 C 245.050781 36.121094 245.125 35.855469 245.253906 35.609375 C 245.378906 35.363281 245.550781 35.148438 245.761719 34.96875 C 245.976562 34.792969 246.214844 34.660156 246.480469 34.578125 C 246.746094 34.492188 247.015625 34.464844 247.292969 34.492188 C 247.566406 34.515625 247.828125 34.59375 248.074219 34.722656 C 248.320312 34.855469 248.53125 35.027344 248.707031 35.242188 C 248.882812 35.457031 249.011719 35.695312 249.09375 35.964844 C 250.308594 39.902344 251.101562 43.925781 251.46875 48.035156 C 251.472656 48.101562 251.476562 48.167969 251.476562 48.230469 Z M 244.289062 25.789062 C 244.289062 26.253906 244.152344 26.671875 243.871094 27.042969 C 243.589844 27.414062 243.226562 27.664062 242.78125 27.792969 C 242.335938 27.917969 241.894531 27.898438 241.460938 27.730469 C 241.027344 27.5625 240.6875 27.28125 240.445312 26.886719 C 238.457031 23.660156 236.054688 20.785156 233.238281 18.253906 C 233.03125 18.070312 232.871094 17.855469 232.753906 17.605469 C 232.636719 17.359375 232.570312 17.097656 232.554688 16.820312 C 232.539062 16.546875 232.578125 16.28125 232.667969 16.023438 C 232.761719 15.761719 232.898438 15.53125 233.078125 15.324219 C 233.261719 15.121094 233.476562 14.957031 233.722656 14.839844 C 233.96875 14.71875 234.230469 14.648438 234.503906 14.632812 C 234.777344 14.617188 235.046875 14.652344 235.304688 14.742188 C 235.566406 14.832031 235.796875 14.964844 236.003906 15.148438 C 239.121094 17.945312 241.78125 21.125 243.976562 24.695312 C 244.183594 25.03125 244.289062 25.394531 244.289062 25.789062 Z M 242.898438 81.777344 C 242.898438 82.253906 242.75 82.679688 242.457031 83.054688 C 239.90625 86.289062 237.042969 89.21875 233.871094 91.84375 C 233.65625 92.019531 233.421875 92.148438 233.15625 92.230469 C 232.894531 92.3125 232.625 92.339844 232.351562 92.316406 C 232.078125 92.289062 231.820312 92.214844 231.574219 92.085938 C 231.332031 91.957031 231.121094 91.789062 230.945312 91.574219 C 230.769531 91.363281 230.636719 91.128906 230.554688 90.863281 C 230.472656 90.601562 230.445312 90.332031 230.46875 90.058594 C 230.492188 89.78125 230.570312 89.523438 230.695312 89.28125 C 230.824219 89.035156 230.992188 88.824219 231.203125 88.648438 C 234.148438 86.210938 236.808594 83.492188 239.179688 80.492188 C 239.453125 80.144531 239.800781 79.90625 240.226562 79.78125 C 240.652344 79.652344 241.074219 79.664062 241.496094 79.808594 C 241.914062 79.953125 242.253906 80.207031 242.511719 80.566406 C 242.769531 80.929688 242.898438 81.332031 242.898438 81.777344 Z M 235.433594 237.199219 C 235.433594 237.378906 235.410156 237.554688 235.367188 237.726562 C 235.320312 237.898438 235.253906 238.0625 235.167969 238.21875 C 235.078125 238.375 234.972656 238.515625 234.847656 238.644531 C 234.726562 238.773438 234.585938 238.882812 234.433594 238.976562 C 234.28125 239.070312 234.121094 239.140625 233.949219 239.191406 C 233.78125 239.242188 233.605469 239.273438 233.425781 239.277344 C 233.25 239.285156 233.074219 239.269531 232.898438 239.230469 C 232.726562 239.191406 232.558594 239.128906 232.402344 239.046875 C 228.820312 237.199219 225.300781 235.183594 221.9375 233.046875 C 221.710938 232.898438 221.519531 232.710938 221.367188 232.484375 C 221.214844 232.261719 221.109375 232.015625 221.050781 231.746094 C 220.992188 231.480469 220.988281 231.214844 221.035156 230.945312 C 221.085938 230.675781 221.179688 230.425781 221.328125 230.195312 C 221.472656 229.964844 221.65625 229.773438 221.878906 229.613281 C 222.101562 229.457031 222.34375 229.34375 222.609375 229.285156 C 222.875 229.222656 223.140625 229.210938 223.410156 229.253906 C 223.679688 229.296875 223.929688 229.390625 224.164062 229.53125 C 227.421875 231.597656 230.835938 233.554688 234.308594 235.347656 C 234.652344 235.527344 234.925781 235.78125 235.128906 236.117188 C 235.332031 236.449219 235.433594 236.808594 235.433594 237.199219 Z M 226.761719 10.277344 C 226.761719 10.453125 226.738281 10.621094 226.695312 10.789062 C 226.652344 10.957031 226.589844 11.117188 226.507812 11.269531 C 226.425781 11.421875 226.328125 11.5625 226.210938 11.6875 C 226.09375 11.816406 225.960938 11.925781 225.816406 12.019531 C 225.671875 12.113281 225.515625 12.191406 225.355469 12.246094 C 225.191406 12.300781 225.023438 12.335938 224.851562 12.351562 C 224.675781 12.367188 224.507812 12.359375 224.335938 12.328125 C 224.164062 12.300781 224 12.25 223.84375 12.179688 C 220.398438 10.65625 216.800781 9.730469 213.050781 9.398438 C 212.777344 9.375 212.519531 9.296875 212.277344 9.167969 C 212.035156 9.039062 211.828125 8.871094 211.652344 8.660156 C 211.476562 8.449219 211.347656 8.210938 211.265625 7.949219 C 211.183594 7.6875 211.15625 7.417969 211.179688 7.144531 C 211.203125 6.871094 211.277344 6.613281 211.40625 6.371094 C 211.53125 6.125 211.699219 5.914062 211.90625 5.738281 C 212.117188 5.5625 212.351562 5.429688 212.613281 5.347656 C 212.875 5.261719 213.140625 5.230469 213.414062 5.253906 C 217.621094 5.625 221.65625 6.664062 225.519531 8.371094 C 225.898438 8.539062 226.199219 8.792969 226.421875 9.140625 C 226.648438 9.484375 226.761719 9.867188 226.761719 10.277344 Z M 224.925781 97.109375 C 224.925781 97.472656 224.839844 97.816406 224.660156 98.132812 C 224.480469 98.449219 224.234375 98.703125 223.925781 98.894531 C 220.460938 100.980469 216.894531 102.875 213.226562 104.578125 C 212.976562 104.695312 212.714844 104.757812 212.4375 104.769531 C 212.164062 104.78125 211.894531 104.742188 211.636719 104.648438 C 211.378906 104.550781 211.148438 104.410156 210.945312 104.226562 C 210.742188 104.039062 210.582031 103.820312 210.464844 103.570312 C 210.347656 103.320312 210.285156 103.058594 210.273438 102.78125 C 210.261719 102.507812 210.300781 102.242188 210.394531 101.980469 C 210.488281 101.722656 210.628906 101.492188 210.816406 101.285156 C 211 101.082031 211.21875 100.921875 211.46875 100.804688 C 215 99.167969 218.433594 97.34375 221.769531 95.335938 C 222.089844 95.140625 222.4375 95.039062 222.8125 95.035156 C 223.1875 95.027344 223.539062 95.117188 223.867188 95.300781 C 224.195312 95.484375 224.453125 95.738281 224.640625 96.0625 C 224.832031 96.386719 224.925781 96.738281 224.925781 97.113281 Z M 215.402344 224.484375 C 215.402344 224.878906 215.296875 225.246094 215.085938 225.582031 C 214.878906 225.917969 214.597656 226.171875 214.242188 226.347656 C 213.886719 226.523438 213.511719 226.589844 213.117188 226.550781 C 212.722656 226.511719 212.371094 226.371094 212.054688 226.128906 C 208.886719 223.691406 205.785156 221.070312 202.839844 218.34375 C 202.632812 218.160156 202.46875 217.9375 202.347656 217.6875 C 202.226562 217.433594 202.160156 217.167969 202.144531 216.890625 C 202.132812 216.609375 202.171875 216.339844 202.269531 216.078125 C 202.363281 215.8125 202.507812 215.582031 202.695312 215.375 C 202.886719 215.167969 203.109375 215.007812 203.363281 214.894531 C 203.617188 214.777344 203.882812 214.714844 204.164062 214.707031 C 204.441406 214.699219 204.710938 214.746094 204.972656 214.847656 C 205.230469 214.949219 205.464844 215.09375 205.664062 215.289062 C 208.515625 217.929688 211.519531 220.46875 214.589844 222.832031 C 215.132812 223.246094 215.402344 223.796875 215.402344 224.484375 Z M 203.523438 8.242188 C 203.523438 8.472656 203.484375 8.699219 203.40625 8.921875 C 203.332031 9.140625 203.222656 9.34375 203.078125 9.527344 C 202.933594 9.710938 202.765625 9.863281 202.570312 9.992188 C 202.375 10.117188 202.164062 10.207031 201.9375 10.261719 C 198.273438 11.171875 194.828125 12.617188 191.609375 14.589844 C 191.375 14.734375 191.121094 14.824219 190.847656 14.867188 C 190.574219 14.910156 190.304688 14.898438 190.039062 14.832031 C 189.769531 14.765625 189.523438 14.652344 189.304688 14.488281 C 189.082031 14.328125 188.898438 14.128906 188.753906 13.890625 C 188.613281 13.65625 188.519531 13.402344 188.476562 13.128906 C 188.433594 12.855469 188.445312 12.585938 188.511719 12.320312 C 188.578125 12.050781 188.691406 11.804688 188.851562 11.582031 C 189.015625 11.359375 189.214844 11.175781 189.449219 11.035156 C 193.035156 8.835938 196.867188 7.234375 200.945312 6.21875 C 201.101562 6.183594 201.253906 6.164062 201.414062 6.160156 C 201.570312 6.15625 201.726562 6.171875 201.878906 6.207031 C 202.035156 6.238281 202.183594 6.289062 202.324219 6.355469 C 202.46875 6.425781 202.601562 6.507812 202.726562 6.605469 C 202.851562 6.703125 202.960938 6.8125 203.058594 6.933594 C 203.160156 7.058594 203.242188 7.1875 203.3125 7.332031 C 203.382812 7.472656 203.433594 7.621094 203.46875 7.773438 C 203.503906 7.929688 203.523438 8.085938 203.523438 8.242188 Z M 203.441406 107.261719 C 203.441406 107.699219 203.320312 108.09375 203.070312 108.453125 C 202.820312 108.808594 202.492188 109.0625 202.085938 109.214844 C 198.484375 110.554688 194.644531 111.839844 190.675781 113.035156 C 190.410156 113.125 190.136719 113.15625 189.859375 113.132812 C 189.578125 113.109375 189.3125 113.035156 189.066406 112.90625 C 188.816406 112.777344 188.601562 112.601562 188.421875 112.386719 C 188.246094 112.171875 188.113281 111.929688 188.035156 111.660156 C 187.953125 111.390625 187.925781 111.117188 187.957031 110.835938 C 187.988281 110.558594 188.070312 110.296875 188.207031 110.050781 C 188.339844 109.804688 188.519531 109.59375 188.738281 109.421875 C 188.960938 109.25 189.207031 109.125 189.476562 109.050781 C 193.363281 107.878906 197.117188 106.621094 200.640625 105.3125 C 200.796875 105.253906 200.957031 105.214844 201.125 105.195312 C 201.292969 105.175781 201.457031 105.179688 201.625 105.199219 C 201.789062 105.21875 201.953125 105.261719 202.109375 105.320312 C 202.265625 105.382812 202.414062 105.460938 202.550781 105.554688 C 202.6875 105.652344 202.8125 105.761719 202.921875 105.886719 C 203.035156 106.015625 203.128906 106.152344 203.207031 106.300781 C 203.285156 106.449219 203.34375 106.605469 203.382812 106.769531 C 203.421875 106.929688 203.441406 107.097656 203.441406 107.265625 Z M 197.992188 208.367188 C 197.992188 208.796875 197.871094 209.191406 197.625 209.546875 C 197.382812 209.902344 197.058594 210.15625 196.660156 210.3125 C 196.257812 210.464844 195.847656 210.492188 195.425781 210.394531 C 195.007812 210.292969 194.65625 210.082031 194.367188 209.761719 C 191.707031 206.816406 189.121094 203.691406 186.683594 200.476562 C 186.519531 200.257812 186.402344 200.015625 186.335938 199.75 C 186.265625 199.480469 186.25 199.214844 186.289062 198.941406 C 186.328125 198.671875 186.417969 198.414062 186.554688 198.179688 C 186.695312 197.941406 186.871094 197.742188 187.089844 197.574219 C 187.308594 197.410156 187.550781 197.289062 187.816406 197.21875 C 188.082031 197.148438 188.347656 197.132812 188.621094 197.167969 C 188.894531 197.203125 189.148438 197.292969 189.386719 197.429688 C 189.621094 197.566406 189.824219 197.742188 189.992188 197.960938 C 192.359375 201.078125 194.871094 204.113281 197.453125 206.96875 C 197.8125 207.367188 197.988281 207.832031 197.992188 208.367188 Z M 183.632812 189.46875 C 183.632812 189.933594 183.492188 190.347656 183.21875 190.71875 C 182.941406 191.089844 182.578125 191.339844 182.136719 191.46875 C 181.691406 191.597656 181.253906 191.582031 180.824219 191.417969 C 180.390625 191.257812 180.050781 190.980469 179.800781 190.589844 C 177.679688 187.265625 175.628906 183.773438 173.714844 180.210938 C 173.582031 179.96875 173.496094 179.707031 173.464844 179.429688 C 173.433594 179.152344 173.457031 178.882812 173.539062 178.613281 C 173.617188 178.347656 173.742188 178.105469 173.917969 177.886719 C 174.09375 177.671875 174.300781 177.496094 174.546875 177.367188 C 174.792969 177.234375 175.054688 177.15625 175.332031 177.128906 C 175.605469 177.101562 175.878906 177.128906 176.144531 177.210938 C 176.410156 177.292969 176.648438 177.421875 176.863281 177.601562 C 177.078125 177.777344 177.25 177.992188 177.375 178.238281 C 179.242188 181.710938 181.238281 185.113281 183.304688 188.347656 C 183.523438 188.691406 183.632812 189.0625 183.632812 189.46875 Z M 183.421875 20.289062 C 183.421875 20.84375 183.230469 21.320312 182.847656 21.722656 C 180.226562 24.507812 177.929688 27.539062 175.957031 30.820312 C 175.816406 31.0625 175.636719 31.265625 175.414062 31.433594 C 175.191406 31.601562 174.945312 31.71875 174.671875 31.789062 C 174.402344 31.859375 174.128906 31.871094 173.855469 31.832031 C 173.578125 31.789062 173.320312 31.695312 173.082031 31.550781 C 172.84375 31.40625 172.644531 31.222656 172.480469 30.996094 C 172.316406 30.769531 172.203125 30.519531 172.136719 30.25 C 172.074219 29.976562 172.066406 29.703125 172.109375 29.429688 C 172.15625 29.152344 172.253906 28.898438 172.402344 28.660156 C 174.527344 25.125 177.003906 21.851562 179.835938 18.847656 C 180.128906 18.539062 180.480469 18.339844 180.898438 18.25 C 181.3125 18.160156 181.71875 18.191406 182.113281 18.351562 C 182.507812 18.507812 182.824219 18.765625 183.0625 19.117188 C 183.300781 19.46875 183.421875 19.859375 183.421875 20.285156 Z M 180.667969 114.179688 C 180.667969 114.414062 180.632812 114.636719 180.554688 114.859375 C 180.480469 115.078125 180.371094 115.28125 180.226562 115.464844 C 180.082031 115.648438 179.914062 115.800781 179.71875 115.929688 C 179.523438 116.054688 179.3125 116.144531 179.085938 116.203125 C 175.328125 117.128906 171.390625 118.011719 167.382812 118.824219 C 167.109375 118.878906 166.839844 118.882812 166.566406 118.832031 C 166.292969 118.78125 166.039062 118.679688 165.808594 118.527344 C 165.578125 118.375 165.382812 118.183594 165.226562 117.953125 C 165.070312 117.722656 164.964844 117.472656 164.910156 117.199219 C 164.855469 116.925781 164.855469 116.652344 164.910156 116.382812 C 164.964844 116.109375 165.070312 115.855469 165.222656 115.625 C 165.378906 115.394531 165.570312 115.203125 165.804688 115.050781 C 166.035156 114.898438 166.285156 114.792969 166.558594 114.742188 C 170.511719 113.941406 174.390625 113.074219 178.09375 112.160156 C 178.359375 112.09375 178.628906 112.082031 178.902344 112.121094 C 179.175781 112.164062 179.429688 112.257812 179.664062 112.398438 C 179.902344 112.542969 180.101562 112.722656 180.265625 112.945312 C 180.425781 113.167969 180.542969 113.414062 180.609375 113.683594 C 180.648438 113.84375 180.667969 114.011719 180.667969 114.179688 Z M 172.371094 168.566406 C 172.371094 168.804688 172.332031 169.035156 172.25 169.261719 C 172.171875 169.484375 172.058594 169.691406 171.910156 169.875 C 171.757812 170.0625 171.582031 170.214844 171.382812 170.339844 C 171.179688 170.464844 170.960938 170.554688 170.730469 170.605469 C 170.496094 170.652344 170.261719 170.664062 170.027344 170.632812 C 169.792969 170.605469 169.566406 170.535156 169.355469 170.429688 C 169.144531 170.320312 168.953125 170.183594 168.789062 170.011719 C 168.625 169.839844 168.492188 169.644531 168.394531 169.425781 C 167.34375 167.097656 166.316406 164.695312 165.347656 162.285156 C 165.335938 162.257812 165.324219 162.226562 165.3125 162.195312 C 165.292969 162.136719 164.789062 160.699219 164.027344 158.054688 C 163.953125 157.789062 163.933594 157.523438 163.96875 157.25 C 164 156.976562 164.082031 156.722656 164.21875 156.484375 C 164.351562 156.246094 164.523438 156.039062 164.738281 155.871094 C 164.953125 155.699219 165.191406 155.578125 165.453125 155.5 C 165.71875 155.425781 165.984375 155.402344 166.257812 155.429688 C 166.527344 155.460938 166.785156 155.542969 167.023438 155.671875 C 167.265625 155.804688 167.472656 155.976562 167.644531 156.1875 C 167.816406 156.398438 167.941406 156.636719 168.023438 156.898438 C 168.675781 159.175781 169.136719 160.527344 169.222656 160.777344 C 170.164062 163.117188 171.160156 165.449219 172.183594 167.710938 C 172.308594 167.984375 172.371094 168.269531 172.371094 168.570312 Z M 171.027344 40.398438 C 171.027344 40.660156 170.976562 40.917969 170.878906 41.160156 C 170.304688 42.621094 169.757812 44.148438 169.25 45.703125 C 168.546875 47.863281 167.878906 50.070312 167.261719 52.261719 C 167.1875 52.527344 167.0625 52.765625 166.894531 52.984375 C 166.722656 53.199219 166.515625 53.375 166.277344 53.511719 C 166.035156 53.644531 165.777344 53.730469 165.503906 53.761719 C 165.230469 53.792969 164.960938 53.773438 164.695312 53.699219 C 164.429688 53.621094 164.191406 53.5 163.972656 53.328125 C 163.757812 53.15625 163.582031 52.953125 163.445312 52.710938 C 163.3125 52.472656 163.230469 52.214844 163.195312 51.941406 C 163.164062 51.667969 163.183594 51.394531 163.257812 51.128906 C 163.890625 48.882812 164.578125 46.625 165.296875 44.410156 C 165.832031 42.777344 166.40625 41.171875 167.011719 39.632812 C 167.101562 39.410156 167.226562 39.203125 167.386719 39.023438 C 167.546875 38.839844 167.730469 38.691406 167.941406 38.574219 C 168.15625 38.457031 168.378906 38.378906 168.621094 38.339844 C 168.859375 38.300781 169.097656 38.304688 169.335938 38.351562 C 169.574219 38.394531 169.796875 38.480469 170.003906 38.605469 C 170.214844 38.726562 170.394531 38.882812 170.550781 39.070312 C 170.703125 39.257812 170.820312 39.464844 170.902344 39.691406 C 170.984375 39.917969 171.027344 40.15625 171.027344 40.398438 Z M 165.234375 145.933594 C 165.234375 146.191406 165.191406 146.441406 165.097656 146.679688 C 165.007812 146.921875 164.875 147.136719 164.703125 147.328125 C 164.53125 147.519531 164.328125 147.675781 164.101562 147.792969 C 163.871094 147.910156 163.628906 147.980469 163.375 148.007812 C 163.117188 148.035156 162.867188 148.015625 162.617188 147.949219 C 162.371094 147.882812 162.140625 147.773438 161.933594 147.621094 C 161.726562 147.46875 161.550781 147.285156 161.410156 147.070312 C 161.273438 146.855469 161.175781 146.621094 161.121094 146.367188 C 160.300781 142.523438 159.570312 138.546875 158.957031 134.546875 C 158.910156 134.273438 158.921875 134 158.984375 133.730469 C 159.046875 133.460938 159.160156 133.214844 159.324219 132.988281 C 159.488281 132.765625 159.6875 132.578125 159.925781 132.433594 C 160.160156 132.289062 160.417969 132.195312 160.691406 132.152344 C 160.964844 132.109375 161.238281 132.125 161.507812 132.191406 C 161.777344 132.257812 162.023438 132.371094 162.246094 132.539062 C 162.46875 132.703125 162.652344 132.90625 162.792969 133.144531 C 162.933594 133.382812 163.027344 133.640625 163.066406 133.914062 C 163.667969 137.832031 164.382812 141.730469 165.1875 145.496094 C 165.21875 145.640625 165.234375 145.789062 165.234375 145.933594 Z M 164.519531 63.25 C 164.519531 63.394531 164.503906 63.539062 164.472656 63.679688 C 163.683594 67.472656 163.003906 71.367188 162.453125 75.257812 C 162.414062 75.53125 162.328125 75.785156 162.1875 76.023438 C 162.046875 76.261719 161.867188 76.464844 161.644531 76.628906 C 161.425781 76.796875 161.183594 76.914062 160.914062 76.984375 C 160.648438 77.050781 160.378906 77.066406 160.105469 77.027344 C 159.832031 76.992188 159.578125 76.902344 159.339844 76.761719 C 159.101562 76.621094 158.898438 76.441406 158.734375 76.21875 C 158.570312 76 158.449219 75.753906 158.382812 75.488281 C 158.3125 75.222656 158.296875 74.949219 158.335938 74.675781 C 158.898438 70.699219 159.589844 66.707031 160.402344 62.828125 C 160.453125 62.574219 160.550781 62.339844 160.6875 62.125 C 160.828125 61.90625 161 61.722656 161.207031 61.570312 C 161.417969 61.417969 161.644531 61.308594 161.894531 61.242188 C 162.140625 61.175781 162.394531 61.152344 162.648438 61.179688 C 162.90625 61.207031 163.148438 61.277344 163.378906 61.394531 C 163.605469 61.511719 163.808594 61.664062 163.980469 61.855469 C 164.152344 62.046875 164.285156 62.261719 164.378906 62.503906 C 164.46875 62.742188 164.515625 62.992188 164.515625 63.25 Z M 161.609375 122.429688 C 161.609375 122.699219 161.558594 122.957031 161.460938 123.203125 C 161.359375 123.453125 161.21875 123.671875 161.035156 123.867188 C 160.851562 124.0625 160.636719 124.214844 160.394531 124.324219 C 160.148438 124.4375 159.894531 124.496094 159.628906 124.511719 C 159.363281 124.523438 159.101562 124.484375 158.847656 124.398438 C 158.597656 124.3125 158.371094 124.179688 158.167969 124.003906 C 157.964844 123.832031 157.804688 123.625 157.679688 123.386719 C 157.558594 123.148438 157.484375 122.898438 157.460938 122.628906 C 157.363281 121.652344 157.273438 120.671875 157.191406 119.6875 C 157.058594 120.03125 156.851562 120.316406 156.566406 120.546875 C 156.28125 120.777344 155.957031 120.921875 155.59375 120.984375 C 151.730469 121.617188 147.742188 122.207031 143.746094 122.730469 C 143.472656 122.769531 143.199219 122.75 142.933594 122.679688 C 142.667969 122.609375 142.425781 122.488281 142.203125 122.320312 C 141.984375 122.152344 141.808594 121.949219 141.667969 121.707031 C 141.53125 121.46875 141.445312 121.210938 141.410156 120.9375 C 141.371094 120.664062 141.390625 120.394531 141.460938 120.128906 C 141.535156 119.859375 141.652344 119.617188 141.824219 119.398438 C 141.992188 119.179688 142.195312 119 142.433594 118.863281 C 142.675781 118.726562 142.929688 118.640625 143.203125 118.605469 C 147.15625 118.085938 151.097656 117.503906 154.917969 116.875 C 155.34375 116.804688 155.75 116.859375 156.136719 117.042969 C 156.527344 117.226562 156.832031 117.503906 157.050781 117.871094 C 156.867188 115.457031 156.726562 113.039062 156.628906 110.648438 C 156.617188 110.371094 156.65625 110.101562 156.75 109.839844 C 156.84375 109.582031 156.984375 109.347656 157.171875 109.144531 C 157.359375 108.9375 157.578125 108.777344 157.828125 108.660156 C 158.082031 108.546875 158.34375 108.480469 158.621094 108.46875 C 158.898438 108.457031 159.164062 108.5 159.425781 108.597656 C 159.683594 108.691406 159.917969 108.835938 160.117188 109.023438 C 160.320312 109.210938 160.480469 109.429688 160.597656 109.683594 C 160.710938 109.933594 160.773438 110.199219 160.785156 110.476562 C 160.941406 114.363281 161.214844 118.316406 161.597656 122.226562 C 161.605469 122.292969 161.605469 122.359375 161.605469 122.429688 Z M 161.191406 86.789062 C 161.191406 86.839844 161.191406 86.894531 161.183594 86.949219 C 160.886719 90.8125 160.703125 94.765625 160.636719 98.703125 C 160.632812 98.980469 160.574219 99.242188 160.464844 99.496094 C 160.355469 99.75 160.199219 99.972656 160 100.164062 C 159.804688 100.355469 159.578125 100.5 159.320312 100.601562 C 159.0625 100.703125 158.796875 100.75 158.523438 100.746094 C 158.246094 100.742188 157.984375 100.683594 157.730469 100.574219 C 157.476562 100.464844 157.253906 100.3125 157.0625 100.113281 C 156.871094 99.914062 156.726562 99.6875 156.625 99.433594 C 156.523438 99.175781 156.472656 98.910156 156.476562 98.632812 C 156.546875 94.613281 156.734375 90.574219 157.039062 86.628906 C 157.058594 86.359375 157.128906 86.105469 157.25 85.863281 C 157.367188 85.625 157.527344 85.414062 157.726562 85.234375 C 157.929688 85.054688 158.15625 84.917969 158.410156 84.828125 C 158.660156 84.738281 158.921875 84.695312 159.191406 84.707031 C 159.460938 84.71875 159.71875 84.777344 159.960938 84.886719 C 160.207031 84.996094 160.421875 85.148438 160.609375 85.34375 C 160.796875 85.539062 160.941406 85.757812 161.039062 86.007812 C 161.140625 86.257812 161.191406 86.519531 161.191406 86.789062 Z M 133.71875 122.035156 C 133.71875 122.292969 133.671875 122.542969 133.578125 122.785156 C 133.484375 123.023438 133.351562 123.238281 133.179688 123.429688 C 133.007812 123.621094 132.804688 123.777344 132.574219 123.890625 C 132.34375 124.007812 132.101562 124.078125 131.847656 124.105469 C 127.78125 124.511719 123.757812 124.847656 119.894531 125.109375 C 119.621094 125.125 119.351562 125.085938 119.09375 124.996094 C 118.835938 124.90625 118.601562 124.773438 118.398438 124.589844 C 118.191406 124.410156 118.027344 124.195312 117.90625 123.949219 C 117.785156 123.703125 117.714844 123.441406 117.699219 123.167969 C 117.679688 122.894531 117.714844 122.628906 117.800781 122.367188 C 117.886719 122.109375 118.023438 121.875 118.203125 121.667969 C 118.378906 121.460938 118.59375 121.292969 118.835938 121.171875 C 119.082031 121.046875 119.339844 120.976562 119.613281 120.953125 C 123.433594 120.699219 127.410156 120.363281 131.433594 119.960938 C 131.726562 119.933594 132.011719 119.964844 132.292969 120.058594 C 132.570312 120.152344 132.820312 120.296875 133.035156 120.492188 C 133.253906 120.691406 133.421875 120.921875 133.542969 121.191406 C 133.660156 121.460938 133.722656 121.742188 133.722656 122.035156 Z M 109.90625 123.65625 C 109.90625 123.929688 109.855469 124.1875 109.753906 124.441406 C 109.652344 124.691406 109.507812 124.914062 109.316406 125.109375 C 109.128906 125.304688 108.910156 125.453125 108.664062 125.5625 C 108.414062 125.671875 108.15625 125.730469 107.886719 125.738281 C 106.347656 125.785156 104.699219 125.808594 102.988281 125.808594 C 100.71875 125.808594 98.324219 125.765625 95.875 125.683594 C 95.601562 125.675781 95.335938 125.613281 95.085938 125.5 C 94.835938 125.386719 94.617188 125.226562 94.429688 125.023438 C 94.238281 124.824219 94.097656 124.59375 94 124.335938 C 93.902344 124.078125 93.859375 123.808594 93.871094 123.535156 C 93.878906 123.257812 93.941406 122.996094 94.054688 122.746094 C 94.167969 122.492188 94.324219 122.273438 94.527344 122.085938 C 94.726562 121.894531 94.957031 121.753906 95.214844 121.65625 C 95.472656 121.558594 95.738281 121.515625 96.015625 121.523438 C 98.417969 121.601562 100.765625 121.640625 102.988281 121.640625 C 104.660156 121.640625 106.265625 121.617188 107.761719 121.574219 C 108.039062 121.566406 108.304688 121.609375 108.5625 121.710938 C 108.820312 121.808594 109.046875 121.949219 109.25 122.140625 C 109.449219 122.328125 109.605469 122.550781 109.71875 122.800781 C 109.832031 123.050781 109.890625 123.316406 109.902344 123.59375 Z M 86.164062 122.925781 C 86.164062 122.980469 86.164062 123.039062 86.15625 123.09375 C 86.136719 123.367188 86.0625 123.628906 85.9375 123.875 C 85.8125 124.121094 85.644531 124.332031 85.433594 124.511719 C 85.226562 124.691406 84.988281 124.824219 84.726562 124.910156 C 84.464844 124.996094 84.195312 125.027344 83.921875 125.003906 C 80.042969 124.699219 76.035156 124.308594 72.019531 123.839844 C 71.746094 123.804688 71.488281 123.722656 71.25 123.585938 C 71.007812 123.453125 70.800781 123.277344 70.632812 123.058594 C 70.460938 122.84375 70.339844 122.601562 70.265625 122.335938 C 70.1875 122.074219 70.167969 121.804688 70.199219 121.527344 C 70.230469 121.253906 70.3125 121 70.449219 120.757812 C 70.582031 120.515625 70.757812 120.3125 70.972656 120.140625 C 71.1875 119.96875 71.429688 119.84375 71.695312 119.769531 C 71.957031 119.695312 72.226562 119.671875 72.5 119.703125 C 76.46875 120.167969 80.417969 120.554688 84.246094 120.855469 C 84.507812 120.875 84.753906 120.941406 84.992188 121.054688 C 85.226562 121.171875 85.433594 121.324219 85.609375 121.515625 C 85.789062 121.707031 85.925781 121.925781 86.019531 122.167969 C 86.117188 122.410156 86.164062 122.664062 86.164062 122.925781 Z M 62.566406 120.183594 C 62.566406 120.488281 62.503906 120.777344 62.375 121.054688 C 62.25 121.328125 62.074219 121.566406 61.84375 121.765625 C 61.613281 121.960938 61.351562 122.101562 61.0625 122.1875 C 60.769531 122.269531 60.476562 122.289062 60.175781 122.246094 C 56.296875 121.65625 52.335938 120.992188 48.394531 120.265625 C 48.121094 120.214844 47.871094 120.117188 47.640625 119.964844 C 47.410156 119.816406 47.214844 119.628906 47.058594 119.402344 C 46.902344 119.171875 46.792969 118.925781 46.738281 118.65625 C 46.679688 118.386719 46.675781 118.113281 46.726562 117.84375 C 46.773438 117.570312 46.875 117.320312 47.023438 117.089844 C 47.175781 116.855469 47.363281 116.664062 47.589844 116.503906 C 47.816406 116.347656 48.066406 116.242188 48.335938 116.183594 C 48.605469 116.125 48.875 116.121094 49.144531 116.171875 C 53.042969 116.890625 56.964844 117.546875 60.796875 118.128906 C 61.042969 118.164062 61.273438 118.246094 61.492188 118.363281 C 61.710938 118.484375 61.898438 118.640625 62.0625 118.828125 C 62.222656 119.015625 62.347656 119.226562 62.4375 119.460938 C 62.523438 119.691406 62.566406 119.933594 62.566406 120.183594 Z M 39.199219 115.890625 C 39.199219 116.039062 39.183594 116.1875 39.152344 116.332031 C 39.09375 116.601562 38.988281 116.847656 38.832031 117.074219 C 38.675781 117.304688 38.480469 117.492188 38.25 117.640625 C 38.015625 117.792969 37.765625 117.890625 37.496094 117.941406 C 37.222656 117.992188 36.953125 117.988281 36.683594 117.929688 C 32.835938 117.101562 28.921875 116.203125 25.046875 115.261719 C 24.78125 115.191406 24.542969 115.074219 24.324219 114.910156 C 24.105469 114.746094 23.925781 114.546875 23.785156 114.3125 C 23.644531 114.078125 23.554688 113.828125 23.515625 113.558594 C 23.472656 113.285156 23.484375 113.019531 23.550781 112.753906 C 23.613281 112.488281 23.726562 112.242188 23.886719 112.023438 C 24.046875 111.800781 24.242188 111.621094 24.476562 111.476562 C 24.707031 111.332031 24.960938 111.238281 25.230469 111.191406 C 25.5 111.148438 25.765625 111.15625 26.03125 111.214844 C 29.867188 112.152344 33.742188 113.042969 37.554688 113.859375 C 37.789062 113.910156 38.003906 113.996094 38.207031 114.121094 C 38.410156 114.246094 38.585938 114.402344 38.734375 114.585938 C 38.886719 114.769531 39 114.976562 39.078125 115.199219 C 39.160156 115.421875 39.199219 115.652344 39.199219 115.890625 Z M 16.117188 110.265625 C 16.117188 110.425781 16.097656 110.582031 16.0625 110.738281 C 16.023438 110.894531 15.972656 111.042969 15.902344 111.1875 C 15.828125 111.332031 15.742188 111.464844 15.640625 111.589844 C 15.539062 111.710938 15.425781 111.824219 15.300781 111.921875 C 15.171875 112.015625 15.035156 112.097656 14.890625 112.164062 C 14.742188 112.230469 14.59375 112.277344 14.4375 112.308594 C 14.277344 112.339844 14.121094 112.351562 13.960938 112.347656 C 13.800781 112.339844 13.644531 112.316406 13.488281 112.273438 C 9.6875 111.238281 5.828125 110.132812 2.015625 108.988281 C 1.742188 108.917969 1.496094 108.796875 1.269531 108.625 C 1.046875 108.453125 0.867188 108.242188 0.726562 107.996094 C 0.589844 107.75 0.503906 107.484375 0.472656 107.203125 C 0.441406 106.921875 0.464844 106.648438 0.546875 106.375 C 0.628906 106.105469 0.761719 105.863281 0.941406 105.644531 C 1.121094 105.425781 1.335938 105.253906 1.589844 105.125 C 1.839844 104.996094 2.105469 104.917969 2.386719 104.898438 C 2.667969 104.878906 2.945312 104.914062 3.210938 105.003906 C 6.992188 106.140625 10.816406 107.234375 14.582031 108.261719 C 15.035156 108.382812 15.402344 108.632812 15.6875 109.003906 C 15.972656 109.375 16.113281 109.796875 16.117188 110.265625 Z M 16.117188 110.265625 " fill-opacity="1" fill-rule="nonzero"/></g></svg>