<svg xmlns="http://www.w3.org/2000/svg" xmlns:xlink="http://www.w3.org/1999/xlink" width="500" zoomAndPan="magnify" viewBox="0 0 375 374.999991" height="500" preserveAspectRatio="xMidYMid meet" version="1.0"><path fill="#f44336" d="M 184.765625 194.515625 C 176.96875 181.945312 171.3125 171.523438 163.476562 151.898438 C 150.226562 118.75 244.0625 88.796875 206.015625 31.242188 C 222.507812 71 146.820312 95.578125 139.789062 128.6875 C 133.359375 159.140625 184.726562 194.515625 184.765625 194.515625 Z M 184.765625 194.515625 " fill-opacity="1" fill-rule="nonzero"/><path fill="#f44336" d="M 186.546875 134.921875 C 185.046875 154.578125 203.960938 165.054688 204.507812 179.414062 C 204.945312 191.101562 193.203125 200.84375 193.203125 200.84375 C 193.203125 200.84375 214.515625 196.65625 221.164062 178.828125 C 228.546875 159.03125 206.835938 145.476562 209.070312 129.625 C 211.15625 114.484375 256.1875 86.320312 256.1875 86.320312 C 256.1875 86.320312 189.929688 90.710938 186.546875 134.921875 Z M 186.546875 134.921875 " fill-opacity="1" fill-rule="nonzero"/><path fill="#1565c0" d="M 250.65625 195.742188 C 264.359375 192.664062 275.914062 201.390625 275.914062 211.445312 C 275.914062 234.109375 244.5 255.53125 244.5 255.53125 C 244.5 255.53125 293.132812 249.734375 293.132812 212.523438 C 293.132812 187.914062 269.25 181.765625 250.65625 195.742188 Z M 250.65625 195.742188 " fill-opacity="1" fill-rule="nonzero"/><path fill="#1565c0" d="M 227.570312 214.023438 C 227.570312 214.023438 242.734375 203.21875 246.773438 199.164062 C 209.5625 207.0625 124.601562 208.125 124.601562 201.265625 C 124.601562 194.945312 152 188.46875 152 188.46875 C 152 188.46875 91.273438 187.59375 91.273438 205.507812 C 91.273438 224.179688 170.765625 225.515625 227.570312 214.023438 Z M 227.570312 214.023438 " fill-opacity="1" fill-rule="nonzero"/><path fill="#1565c0" d="M 218.242188 231.023438 C 183.015625 242.734375 118.132812 238.992188 137.351562 223.265625 C 127.992188 223.265625 114.117188 230.789062 114.117188 238.023438 C 114.117188 252.53125 184.289062 263.734375 236.226562 242.492188 Z M 218.242188 231.023438 " fill-opacity="1" fill-rule="nonzero"/><path fill="#1565c0" d="M 145.984375 255.773438 C 133.203125 255.773438 124.929688 264.007812 124.929688 270.007812 C 124.929688 288.6875 201.179688 290.570312 231.390625 271.609375 L 212.1875 258.859375 C 189.617188 268.78125 132.921875 270.148438 145.984375 255.773438 Z M 145.984375 255.773438 " fill-opacity="1" fill-rule="nonzero"/><path fill="#1565c0" d="M 283.445312 286.1875 C 283.445312 278.875 275.203125 275.429688 272.25 273.78125 C 289.65625 315.757812 97.898438 312.5 97.898438 287.71875 C 97.898438 282.085938 112.015625 276.570312 125.0625 279.179688 L 113.96875 272.625 C 87.96875 268.546875 70.3125 279.976562 70.3125 289.195312 C 70.3125 332.1875 283.445312 330.117188 283.445312 286.1875 Z M 283.445312 286.1875 " fill-opacity="1" fill-rule="nonzero"/><path fill="#1565c0" d="M 304.6875 301.59375 C 272.296875 333.585938 190.164062 345.242188 107.570312 325.476562 C 190.164062 360.65625 304.296875 340.84375 304.6875 301.59375 Z M 304.6875 301.59375 " fill-opacity="1" fill-rule="nonzero"/></svg>