<svg width="500" height="500" viewBox="0 0 500 500" fill="none" xmlns="http://www.w3.org/2000/svg">
<path d="M229.588 13.4851C241.738 6.60513 257.229 6.57475 269.076 13.4851L450.475 115.743C461.82 122.121 469.414 134.772 469.307 147.849V352.88C469.383 366.503 461.045 379.428 449.078 385.685L268.65 487.472C262.479 490.882 255.507 492.578 248.459 492.383C241.411 492.188 234.544 490.109 228.57 486.363L174.427 455.077C170.736 452.875 166.59 451.128 163.978 447.559C166.287 444.461 170.387 444.066 173.728 442.699C181.261 440.299 188.156 436.624 195.082 432.736C196.829 431.521 198.97 431.977 200.641 433.07L246.811 459.77C250.106 461.668 253.448 459.162 256.272 457.568L433.435 357.588C435.622 356.525 436.837 354.217 436.654 351.817V148.76C436.897 146.026 435.333 143.536 432.858 142.427L252.886 41.0808C251.848 40.3634 250.618 39.9779 249.357 39.9752C248.096 39.9724 246.864 40.3527 245.823 41.0656L66.1097 142.624C63.6797 143.733 62.0091 146.193 62.3129 148.927V351.984C62.1002 354.384 63.376 356.647 65.5782 357.679L113.601 384.789C122.622 389.649 133.694 392.383 143.627 388.814C147.973 387.176 151.715 384.248 154.351 380.423C156.987 376.599 158.39 372.06 158.374 367.415L158.419 165.573C158.207 162.581 161.032 160.105 163.932 160.409H187.017C190.055 160.333 192.439 163.553 192.029 166.56L191.984 369.678C191.999 387.72 184.587 407.343 167.896 416.197C147.333 426.828 121.909 424.596 101.588 414.374L49.9502 385.822C37.8002 379.747 29.6446 366.625 29.7205 353.017V147.986C29.771 141.322 31.603 134.793 35.0265 129.075C38.45 123.358 43.3405 118.66 49.1909 115.469L229.588 13.4851ZM281.894 155.61C308.123 154.091 336.204 154.607 359.806 167.532C378.076 177.434 388.206 198.211 388.54 218.532C388.024 221.265 385.169 222.784 382.556 222.587C374.963 222.571 367.339 222.693 359.715 222.541C356.48 222.663 354.611 219.686 354.201 216.831C352.014 207.111 346.714 197.497 337.571 192.804C323.538 185.772 307.257 186.121 291.948 186.273C280.77 186.881 268.757 187.838 259.295 194.399C252.005 199.38 249.818 209.586 252.415 217.514C254.845 223.331 261.573 225.199 267.056 226.93C298.676 235.192 332.164 234.524 363.192 245.262C376.026 249.696 388.586 258.323 392.99 271.764C398.731 289.776 396.225 311.312 383.422 325.77C373.034 337.677 357.907 343.995 342.796 347.671C322.703 352.151 301.865 352.257 281.468 350.253C262.287 348.066 242.33 343.023 227.523 329.962C214.856 318.966 208.69 301.835 209.297 285.311C209.449 282.516 212.229 280.572 214.917 280.8H237.698C240.766 280.588 243.014 283.23 243.166 286.116C244.578 295.228 248.056 305.1 256.136 310.416C271.718 320.47 291.264 319.771 309.095 320.06C323.872 319.407 340.457 319.209 352.531 309.429C358.91 303.855 360.778 294.545 359.061 286.526C357.193 279.752 349.949 276.609 343.874 274.376C312.664 264.504 278.796 268.088 247.889 256.91C235.344 252.476 223.209 244.092 218.395 231.198C211.667 212.973 214.75 190.389 228.92 176.417C242.589 162.52 262.636 157.159 281.62 155.245L281.894 155.61Z" fill="#8CC84B"/>
</svg>
