<svg xmlns="http://www.w3.org/2000/svg" xmlns:xlink="http://www.w3.org/1999/xlink" width="500" zoomAndPan="magnify" viewBox="0 0 375 374.999991" height="500" preserveAspectRatio="xMidYMid meet" version="1.0"><path fill="#cf649a" d="M 322.109375 210.480469 C 309.121094 210.558594 297.878906 213.675781 288.449219 218.316406 C 284.964844 211.421875 281.484375 205.402344 280.902344 200.90625 C 280.246094 195.683594 279.453125 192.492188 280.246094 186.253906 C 281.042969 180.011719 284.675781 171.164062 284.675781 170.4375 C 284.605469 169.78125 283.875 166.589844 276.40625 166.519531 C 268.9375 166.449219 262.476562 167.972656 261.75 169.933594 C 260.453125 173.5625 259.414062 177.261719 258.628906 181.035156 C 257.324219 187.855469 243.683594 212.015625 235.917969 224.710938 C 233.378906 219.78125 231.199219 215.425781 230.765625 211.945312 C 230.109375 206.722656 229.316406 203.53125 230.109375 197.289062 C 230.90625 191.050781 234.539062 182.203125 234.539062 181.476562 C 234.46875 180.820312 233.738281 177.628906 226.269531 177.558594 C 218.796875 177.488281 212.339844 179.007812 211.613281 180.972656 C 210.886719 182.933594 210.085938 187.574219 208.492188 192.074219 C 206.964844 196.570312 188.828125 236.910156 184.117188 247.425781 C 181.71875 252.796875 179.617188 257.078125 178.09375 259.980469 C 176.566406 262.882812 178.023438 260.203125 177.878906 260.492188 L 175.847656 264.339844 L 175.847656 264.410156 C 174.832031 266.226562 173.738281 267.964844 173.234375 267.964844 C 172.875 267.964844 172.144531 263.101562 173.378906 256.429688 C 176.066406 242.425781 182.597656 220.585938 182.519531 219.792969 C 182.519531 219.429688 183.757812 215.582031 178.3125 213.621094 C 173.015625 211.660156 171.128906 214.925781 170.691406 214.925781 C 170.257812 214.925781 169.890625 216.089844 169.890625 216.089844 C 169.890625 216.089844 175.769531 191.492188 158.644531 191.492188 C 147.90625 191.492188 133.109375 203.175781 125.777344 213.835938 L 88.777344 234.078125 L 87.972656 233.207031 C 67.238281 211.0625 28.859375 195.394531 30.457031 165.648438 C 31.035156 154.835938 34.808594 126.324219 104.160156 91.792969 C 160.964844 63.5 206.460938 71.261719 214.371094 88.527344 C 225.617188 113.191406 190.066406 159.039062 131.007812 165.65625 C 108.519531 168.199219 96.691406 159.484375 93.714844 156.222656 C 90.59375 152.8125 90.15625 152.667969 88.996094 153.324219 C 87.109375 154.339844 88.269531 157.386719 88.996094 159.203125 C 90.738281 163.773438 97.992188 171.898438 110.324219 175.960938 C 121.136719 179.519531 147.542969 181.476562 179.46875 169.144531 C 215.234375 155.285156 243.167969 116.835938 234.96875 84.703125 C 226.621094 51.980469 172.359375 41.246094 121.0625 59.457031 C 90.523438 70.324219 57.5 87.296875 33.707031 109.570312 C 5.355469 135.976562 0.855469 159.050781 2.738281 168.625 C 9.34375 202.796875 56.421875 225.074219 75.28125 241.542969 L 72.671875 242.992188 C 63.238281 247.636719 27.328125 266.429688 18.332031 286.304688 C 8.175781 308.792969 19.925781 324.976562 27.761719 327.152344 C 51.992188 333.902344 76.800781 321.78125 90.226562 301.832031 C 103.574219 281.878906 101.980469 255.980469 95.816406 244.15625 L 95.59375 243.71875 L 102.996094 239.367188 C 107.78125 236.535156 112.5 233.921875 116.632812 231.675781 C 114.3125 237.992188 112.640625 245.460938 111.769531 256.34375 C 110.753906 269.109375 115.976562 285.648438 122.871094 292.183594 C 125.917969 295.015625 129.546875 295.085938 131.796875 295.085938 C 139.777344 295.085938 143.40625 288.480469 147.398438 280.578125 C 152.332031 270.925781 156.683594 259.753906 156.683594 259.753906 C 156.683594 259.753906 151.238281 290.007812 166.113281 290.007812 C 171.558594 290.007812 176.996094 282.96875 179.460938 279.339844 L 179.460938 279.410156 C 179.460938 279.410156 179.605469 279.191406 179.898438 278.6875 C 180.476562 277.816406 180.769531 277.304688 180.769531 277.304688 L 180.769531 277.160156 C 182.945312 273.386719 187.808594 264.75 195.0625 250.464844 C 204.421875 232.035156 213.417969 208.96875 213.417969 208.96875 C 213.417969 208.96875 214.289062 214.625 216.976562 223.910156 C 218.574219 229.425781 222.054688 235.449219 224.742188 241.324219 L 221.257812 246.109375 L 221.328125 246.1875 C 219.472656 248.648438 217.558594 251.066406 215.59375 253.441406 C 208.195312 262.289062 199.34375 272.378906 198.183594 275.277344 C 196.804688 278.691406 197.09375 281.226562 199.78125 283.257812 C 201.742188 284.710938 205.222656 285 208.921875 284.710938 C 215.59375 284.273438 220.238281 282.601562 222.558594 281.585938 C 226.769531 280.085938 230.6875 278.03125 234.3125 275.417969 C 241.566406 270.050781 245.996094 262.429688 245.558594 252.273438 C 245.339844 246.683594 243.527344 241.171875 241.277344 235.949219 L 243.238281 233.046875 C 254.699219 216.285156 263.550781 197.859375 263.550781 197.859375 C 263.550781 197.859375 264.421875 203.519531 267.109375 212.804688 C 268.488281 217.523438 271.246094 222.667969 273.710938 227.746094 C 262.976562 236.527344 256.226562 246.683594 253.90625 253.359375 C 249.621094 265.691406 252.957031 271.28125 259.273438 272.585938 C 262.105469 273.167969 266.167969 271.859375 269.214844 270.554688 C 272.988281 269.320312 277.558594 267.21875 281.765625 264.09375 C 289.023438 258.726562 295.984375 251.253906 295.625 241.171875 C 295.40625 236.527344 294.175781 231.957031 292.503906 227.601562 C 301.644531 223.832031 313.472656 221.652344 328.484375 223.464844 C 360.773438 227.238281 367.15625 247.40625 365.917969 255.820312 C 364.683594 264.234375 357.9375 268.878906 355.6875 270.328125 C 353.4375 271.710938 352.710938 272.214844 352.929688 273.230469 C 353.222656 274.757812 354.238281 274.679688 356.199219 274.390625 C 358.886719 273.957031 373.171875 267.496094 373.753906 251.972656 C 374.625 232.019531 355.6875 210.253906 322.101562 210.476562 Z M 73.113281 294.429688 C 62.445312 306.113281 47.429688 310.535156 41.046875 306.761719 C 34.152344 302.769531 36.839844 285.582031 49.972656 273.171875 C 57.953125 265.628906 68.328125 258.664062 75.148438 254.378906 L 81.753906 250.386719 C 82.1875 250.097656 82.480469 249.953125 82.480469 249.953125 C 82.988281 249.660156 83.570312 249.296875 84.148438 248.9375 C 89.011719 266.636719 84.371094 282.160156 73.125 294.425781 Z M 151.113281 241.398438 C 147.410156 250.46875 139.574219 273.753906 134.863281 272.445312 C 130.800781 271.355469 128.332031 253.730469 134.0625 236.3125 C 136.960938 227.53125 143.132812 217.085938 146.757812 213.023438 C 152.636719 206.496094 159.023438 204.320312 160.617188 207 C 162.503906 210.480469 153.433594 235.726562 151.113281 241.390625 Z M 215.460938 272.15625 C 213.867188 272.957031 212.414062 273.539062 211.757812 273.101562 C 211.25 272.8125 212.414062 271.722656 212.414062 271.722656 C 212.414062 271.722656 220.46875 263.085938 223.660156 259.097656 L 229.976562 251.042969 L 229.976562 251.914062 C 229.976562 262.359375 219.964844 269.324219 215.46875 272.15625 Z M 265.082031 260.839844 C 263.921875 259.96875 264.066406 257.28125 267.984375 248.867188 C 269.511719 245.53125 272.992188 239.941406 279.011719 234.648438 C 279.734375 236.824219 280.171875 238.929688 280.101562 240.886719 C 280.027344 253.945312 270.742188 258.808594 265.082031 260.839844 Z M 265.082031 260.839844 " fill-opacity="1" fill-rule="nonzero"/></svg>